<?xml version="1.0" encoding="UTF-8" standalone="no"?>
<!-- Created with Inkscape (http://www.inkscape.org/) -->

<svg
   width="78mm"
   height="68mm"
   viewBox="0 0 78 68"
   version="1.1"
   id="svg5"
   xml:space="preserve"
   xmlns="http://www.w3.org/2000/svg"
   xmlns:svg="http://www.w3.org/2000/svg"><defs
     id="defs2"><linearGradient
       id="linearGradient27146"><stop
         style="stop-color:#228b22;stop-opacity:1;"
         offset="0"
         id="stop27144" /></linearGradient><linearGradient
       id="linearGradient24698"><stop
         style="stop-color:#000000;stop-opacity:1;"
         offset="0"
         id="stop24696" /></linearGradient><linearGradient
       id="linearGradient24690"><stop
         style="stop-color:#000000;stop-opacity:1;"
         offset="0"
         id="stop24688" /></linearGradient><linearGradient
       id="linearGradient24684"><stop
         style="stop-color:#191970;stop-opacity:1;"
         offset="0"
         id="stop24682" /></linearGradient><linearGradient
       id="linearGradient21415"><stop
         style="stop-color:#000000;stop-opacity:1;"
         offset="0"
         id="stop21413" /></linearGradient></defs><g
     id="layer1"
     style="display:inline"
     transform="translate(-409.513,-1106.541)"><g
       id="g18517-92-6-0"
       transform="matrix(0.26393569,0,0,0.2645019,409.51312,1101.4575)"
       style="display:inline;mix-blend-mode:overlay;fill:#bfbfbf;fill-opacity:1;fill-rule:evenodd;stroke:none;stroke-width:2.00276;stroke-dasharray:none;stroke-opacity:1;image-rendering:pixelated"><g
         id="g18485-1-8-3"
         style="fill:#bfbfbf;fill-opacity:1;fill-rule:evenodd;stroke:none;stroke-width:2.00276;stroke-dasharray:none;stroke-opacity:1">
	<path
   d="m 147.763,44.074 c 12.801,0 23.858,-8.162 27.83,-20.169 -7.578,2.086 -17.237,3.345 -27.83,3.345 -10.592,0 -20.251,-1.259 -27.828,-3.345 3.97,12.006 15.026,20.169 27.828,20.169 z"
   id="path18481-9-2-3"
   style="fill:#bfbfbf;fill-opacity:1;fill-rule:evenodd;stroke:none;stroke-width:2.00276;stroke-dasharray:none;stroke-opacity:1" />
	<path
   d="m 295.158,58.839 c -0.608,-1.706 -1.873,-3.109 -3.521,-3.873 l -56.343,-26.01 c -11.985,-4.06 -24.195,-7.267 -36.524,-9.611 -0.434,-0.085 -0.866,-0.126 -1.292,-0.126 -3.052,0 -5.785,2.107 -6.465,5.197 -4.502,19.82 -22.047,34.659 -43.251,34.659 -21.203,0 -38.749,-14.838 -43.25,-34.659 -0.688,-3.09 -3.416,-5.197 -6.466,-5.197 -0.426,0 -0.858,0.041 -1.292,0.126 -12.328,2.344 -24.538,5.551 -36.542,9.611 L 3.889,54.965 c -1.658,0.764 -2.932,2.167 -3.511,3.873 -0.599,1.726 -0.491,3.589 0.353,5.217 l 24.46,48.272 c 1.145,2.291 3.474,3.666 5.938,3.666 0.636,0 1.281,-0.092 1.917,-0.283 l 27.167,-8.052 v 161.97 c 0,3.678 3.001,6.678 6.689,6.678 h 161.723 c 3.678,0 6.67,-3.001 6.67,-6.678 V 107.66 l 27.186,8.052 c 0.636,0.191 1.28,0.283 1.915,0.283 2.459,0 4.779,-1.375 5.94,-3.666 l 24.469,-48.272 c 0.824,-1.629 0.942,-3.492 0.353,-5.218 z"
   id="path18483-0-1-6"
   style="fill:#bfbfbf;fill-opacity:1;fill-rule:evenodd;stroke:none;stroke-width:2.00276;stroke-dasharray:none;stroke-opacity:1" />
</g><g
         id="g18487-89-0-2"
         style="fill:#bfbfbf;fill-opacity:1;fill-rule:evenodd;stroke:none;stroke-width:2.00276;stroke-dasharray:none;stroke-opacity:1">
</g><g
         id="g18489-2-5-4"
         style="fill:#bfbfbf;fill-opacity:1;fill-rule:evenodd;stroke:none;stroke-width:2.00276;stroke-dasharray:none;stroke-opacity:1">
</g><g
         id="g18491-75-7-9"
         style="fill:#bfbfbf;fill-opacity:1;fill-rule:evenodd;stroke:none;stroke-width:2.00276;stroke-dasharray:none;stroke-opacity:1">
</g><g
         id="g18493-04-8-8"
         style="fill:#bfbfbf;fill-opacity:1;fill-rule:evenodd;stroke:none;stroke-width:2.00276;stroke-dasharray:none;stroke-opacity:1">
</g><g
         id="g18495-7-2-4"
         style="fill:#bfbfbf;fill-opacity:1;fill-rule:evenodd;stroke:none;stroke-width:2.00276;stroke-dasharray:none;stroke-opacity:1">
</g><g
         id="g18497-396-3-2"
         style="fill:#bfbfbf;fill-opacity:1;fill-rule:evenodd;stroke:none;stroke-width:2.00276;stroke-dasharray:none;stroke-opacity:1">
</g><g
         id="g18499-57-2-1"
         style="fill:#bfbfbf;fill-opacity:1;fill-rule:evenodd;stroke:none;stroke-width:2.00276;stroke-dasharray:none;stroke-opacity:1">
</g><g
         id="g18501-6-0-9"
         style="fill:#bfbfbf;fill-opacity:1;fill-rule:evenodd;stroke:none;stroke-width:2.00276;stroke-dasharray:none;stroke-opacity:1">
</g><g
         id="g18503-9-8-8"
         style="fill:#bfbfbf;fill-opacity:1;fill-rule:evenodd;stroke:none;stroke-width:2.00276;stroke-dasharray:none;stroke-opacity:1">
</g><g
         id="g18505-57-7-7"
         style="fill:#bfbfbf;fill-opacity:1;fill-rule:evenodd;stroke:none;stroke-width:2.00276;stroke-dasharray:none;stroke-opacity:1">
</g><g
         id="g18507-3-2-7"
         style="fill:#bfbfbf;fill-opacity:1;fill-rule:evenodd;stroke:none;stroke-width:2.00276;stroke-dasharray:none;stroke-opacity:1">
</g><g
         id="g18509-70-3-5"
         style="fill:#bfbfbf;fill-opacity:1;fill-rule:evenodd;stroke:none;stroke-width:2.00276;stroke-dasharray:none;stroke-opacity:1">
</g><g
         id="g18511-90-4-0"
         style="fill:#bfbfbf;fill-opacity:1;fill-rule:evenodd;stroke:none;stroke-width:2.00276;stroke-dasharray:none;stroke-opacity:1">
</g><g
         id="g18513-2-8-7"
         style="fill:#bfbfbf;fill-opacity:1;fill-rule:evenodd;stroke:none;stroke-width:2.00276;stroke-dasharray:none;stroke-opacity:1">
</g><g
         id="g18515-4-2-5"
         style="fill:#bfbfbf;fill-opacity:1;fill-rule:evenodd;stroke:none;stroke-width:2.00276;stroke-dasharray:none;stroke-opacity:1">
</g></g><path
       style="fill:#f9f9f9;fill-opacity:1;stroke:none;stroke-width:0.529167;stroke-dasharray:none;stroke-opacity:1"
       d="m 445.30033,1127.825 h 5.29167 v 10.5833 h 10.58333 V 1143.7 H 450.592 v 10.5833 h -5.29167 V 1143.7 H 434.717 v -5.2917 h 10.58333 v -10.5833"
       id="path10348" /></g><style
     id="style2"
     type="text/css">.st0{fill:#00285e}.st1{fill:#fff}.st2{fill:#6caddf}.st6{fill:#ffc758}.st8{fill:#d4a11e}</style></svg>
