<?xml version="1.0" encoding="UTF-8" standalone="no"?>
<!-- Created with Inkscape (http://www.inkscape.org/) -->

<svg
   width="4.4185486mm"
   height="4.4185486mm"
   viewBox="0 0 4.4185486 4.4185486"
   version="1.1"
   id="svg5"
   xml:space="preserve"
   xmlns:inkscape="http://www.inkscape.org/namespaces/inkscape"
   xmlns:sodipodi="http://sodipodi.sourceforge.net/DTD/sodipodi-0.dtd"
   xmlns="http://www.w3.org/2000/svg"
   xmlns:svg="http://www.w3.org/2000/svg"><sodipodi:namedview
     id="namedview7"
     pagecolor="#ffffff"
     bordercolor="#000000"
     borderopacity="0.25"
     inkscape:showpageshadow="2"
     inkscape:pageopacity="0.0"
     inkscape:pagecheckerboard="0"
     inkscape:deskcolor="#d1d1d1"
     inkscape:document-units="mm"
     showgrid="true"><inkscape:grid
       type="xygrid"
       id="grid1703" /></sodipodi:namedview><defs
     id="defs2" /><g
     inkscape:label="Layer 1"
     inkscape:groupmode="layer"
     id="layer1"
     transform="translate(-85.103228,-173.18722)"><rect
       style="fill:#ececec;stroke:#000000;stroke-width:0.231129;stroke-linecap:butt;stroke-linejoin:bevel;stroke-dasharray:none;stroke-opacity:1;paint-order:stroke fill markers"
       id="rect1701"
       width="4.1874123"
       height="4.1874127"
       x="85.218796"
       y="173.30278" /><g
       style="fill:currentColor"
       id="g191"
       transform="matrix(0.26458333,0,0,0.26458333,85.223344,173.24731)"><path
         d="m 8.93,6.588 -2.29,0.287 -0.082,0.38 0.45,0.083 c 0.294,0.07 0.352,0.176 0.288,0.469 l -0.738,3.468 c -0.194,0.897 0.105,1.319 0.808,1.319 0.545,0 1.178,-0.252 1.465,-0.598 L 8.919,11.58 c -0.2,0.176 -0.492,0.246 -0.686,0.246 -0.275,0 -0.375,-0.193 -0.304,-0.533 z M 9,4.5 a 1,1 0 1 1 -2,0 1,1 0 0 1 2,0 z"
         id="path182" /></g></g></svg>
