<?xml version="1.0" encoding="UTF-8" standalone="no"?>
<!-- Created with Inkscape (http://www.inkscape.org/) -->

<svg
   width="78.719727mm"
   height="68.55011mm"
   viewBox="0 0 78.719727 68.55011"
   version="1.1"
   id="svg5"
   xml:space="preserve"
   xmlns="http://www.w3.org/2000/svg"
   xmlns:svg="http://www.w3.org/2000/svg"><defs
     id="defs2"><linearGradient
       id="linearGradient27146"><stop
         style="stop-color:#228b22;stop-opacity:1;"
         offset="0"
         id="stop27144" /></linearGradient><linearGradient
       id="linearGradient24698"><stop
         style="stop-color:#000000;stop-opacity:1;"
         offset="0"
         id="stop24696" /></linearGradient><linearGradient
       id="linearGradient24690"><stop
         style="stop-color:#000000;stop-opacity:1;"
         offset="0"
         id="stop24688" /></linearGradient><linearGradient
       id="linearGradient24684"><stop
         style="stop-color:#191970;stop-opacity:1;"
         offset="0"
         id="stop24682" /></linearGradient><linearGradient
       id="linearGradient21415"><stop
         style="stop-color:#000000;stop-opacity:1;"
         offset="0"
         id="stop21413" /></linearGradient></defs><g
     id="layer1"
     style="display:inline"
     transform="translate(-771.98762,-899.05169)"><g
       id="g18517-92-0"
       transform="matrix(0.26458333,0,0,0.26458333,772.25187,894.2313)"
       style="display:inline;mix-blend-mode:lighten;fill:#9470ae;fill-opacity:1;fill-rule:evenodd;stroke:#9672b0;stroke-width:2;stroke-dasharray:none;stroke-opacity:1;image-rendering:pixelated"><g
         id="g18485-1-5"
         style="fill:#9470ae;fill-opacity:1;fill-rule:evenodd;stroke:#9672b0;stroke-width:2;stroke-dasharray:none;stroke-opacity:1">
	<path
   d="m 147.763,44.074 c 12.801,0 23.858,-8.162 27.83,-20.169 -7.578,2.086 -17.237,3.345 -27.83,3.345 -10.592,0 -20.251,-1.259 -27.828,-3.345 3.97,12.006 15.026,20.169 27.828,20.169 z"
   id="path18481-9-6"
   style="fill:#9470ae;fill-opacity:1;fill-rule:evenodd;stroke:#9672b0;stroke-width:2;stroke-dasharray:none;stroke-opacity:1" />
	<path
   d="m 295.158,58.839 c -0.608,-1.706 -1.873,-3.109 -3.521,-3.873 l -56.343,-26.01 c -11.985,-4.06 -24.195,-7.267 -36.524,-9.611 -0.434,-0.085 -0.866,-0.126 -1.292,-0.126 -3.052,0 -5.785,2.107 -6.465,5.197 -4.502,19.82 -22.047,34.659 -43.251,34.659 -21.203,0 -38.749,-14.838 -43.25,-34.659 -0.688,-3.09 -3.416,-5.197 -6.466,-5.197 -0.426,0 -0.858,0.041 -1.292,0.126 -12.328,2.344 -24.538,5.551 -36.542,9.611 L 3.889,54.965 c -1.658,0.764 -2.932,2.167 -3.511,3.873 -0.599,1.726 -0.491,3.589 0.353,5.217 l 24.46,48.272 c 1.145,2.291 3.474,3.666 5.938,3.666 0.636,0 1.281,-0.092 1.917,-0.283 l 27.167,-8.052 v 161.97 c 0,3.678 3.001,6.678 6.689,6.678 h 161.723 c 3.678,0 6.67,-3.001 6.67,-6.678 V 107.66 l 27.186,8.052 c 0.636,0.191 1.28,0.283 1.915,0.283 2.459,0 4.779,-1.375 5.94,-3.666 l 24.469,-48.272 c 0.824,-1.629 0.942,-3.492 0.353,-5.218 z"
   id="path18483-0-0"
   style="fill:#9470ae;fill-opacity:1;fill-rule:evenodd;stroke:#9672b0;stroke-width:2;stroke-dasharray:none;stroke-opacity:1" />
</g><g
         id="g18487-89-4"
         style="fill:#9470ae;fill-opacity:1;fill-rule:evenodd;stroke:#9672b0;stroke-width:2;stroke-dasharray:none;stroke-opacity:1">
</g><g
         id="g18489-2-9"
         style="fill:#9470ae;fill-opacity:1;fill-rule:evenodd;stroke:#9672b0;stroke-width:2;stroke-dasharray:none;stroke-opacity:1">
</g><g
         id="g18491-75-9"
         style="fill:#9470ae;fill-opacity:1;fill-rule:evenodd;stroke:#9672b0;stroke-width:2;stroke-dasharray:none;stroke-opacity:1">
</g><g
         id="g18493-04-65"
         style="fill:#9470ae;fill-opacity:1;fill-rule:evenodd;stroke:#9672b0;stroke-width:2;stroke-dasharray:none;stroke-opacity:1">
</g><g
         id="g18495-7-5"
         style="fill:#9470ae;fill-opacity:1;fill-rule:evenodd;stroke:#9672b0;stroke-width:2;stroke-dasharray:none;stroke-opacity:1">
</g><g
         id="g18497-396-2"
         style="fill:#9470ae;fill-opacity:1;fill-rule:evenodd;stroke:#9672b0;stroke-width:2;stroke-dasharray:none;stroke-opacity:1">
</g><g
         id="g18499-57-5"
         style="fill:#9470ae;fill-opacity:1;fill-rule:evenodd;stroke:#9672b0;stroke-width:2;stroke-dasharray:none;stroke-opacity:1">
</g><g
         id="g18501-6-06"
         style="fill:#9470ae;fill-opacity:1;fill-rule:evenodd;stroke:#9672b0;stroke-width:2;stroke-dasharray:none;stroke-opacity:1">
</g><g
         id="g18503-9-84"
         style="fill:#9470ae;fill-opacity:1;fill-rule:evenodd;stroke:#9672b0;stroke-width:2;stroke-dasharray:none;stroke-opacity:1">
</g><g
         id="g18505-57-3"
         style="fill:#9470ae;fill-opacity:1;fill-rule:evenodd;stroke:#9672b0;stroke-width:2;stroke-dasharray:none;stroke-opacity:1">
</g><g
         id="g18507-3-1"
         style="fill:#9470ae;fill-opacity:1;fill-rule:evenodd;stroke:#9672b0;stroke-width:2;stroke-dasharray:none;stroke-opacity:1">
</g><g
         id="g18509-70-7"
         style="fill:#9470ae;fill-opacity:1;fill-rule:evenodd;stroke:#9672b0;stroke-width:2;stroke-dasharray:none;stroke-opacity:1">
</g><g
         id="g18511-90-6"
         style="fill:#9470ae;fill-opacity:1;fill-rule:evenodd;stroke:#9672b0;stroke-width:2;stroke-dasharray:none;stroke-opacity:1">
</g><g
         id="g18513-2-0"
         style="fill:#9470ae;fill-opacity:1;fill-rule:evenodd;stroke:#9672b0;stroke-width:2;stroke-dasharray:none;stroke-opacity:1">
</g><g
         id="g18515-4-9"
         style="fill:#9470ae;fill-opacity:1;fill-rule:evenodd;stroke:#9672b0;stroke-width:2;stroke-dasharray:none;stroke-opacity:1">
</g></g><path
       style="display:inline;fill:#000000;stroke-width:0.00437574"
       d="m 825.25527,927.33718 c -0.11423,-0.043 -0.11989,-0.23671 -0.008,-0.28951 0.0346,-0.0164 0.0819,-0.0104 0.11565,0.015 0.0187,0.0139 0.044,0.0519 0.0506,0.0759 0.006,0.0234 0.006,0.0797 8e-5,0.10317 -0.0126,0.0433 -0.0453,0.0811 -0.0842,0.0956 -0.0299,0.011 -0.0443,0.011 -0.0737,-9e-5 z m 1.41986,10e-4 c -0.0691,-0.0269 -0.10528,-0.11239 -0.0831,-0.19634 0.017,-0.0636 0.0624,-0.10296 0.11895,-0.10296 0.0415,0 0.074,0.0185 0.10323,0.0585 0.002,0.002 0.008,0.016 0.0141,0.0303 0.008,0.0207 0.009,0.0335 0.009,0.0628 -1.7e-4,0.0519 -0.0141,0.0848 -0.046,0.11671 -0.0376,0.0366 -0.0772,0.047 -0.11785,0.0311 z m 1.25017,0.006 c -10e-4,-0.001 -0.017,-0.003 -0.0331,-0.005 -0.10953,-0.009 -0.20327,-0.032 -0.28688,-0.0679 -0.13687,-0.0588 -0.263,-0.16665 -0.34923,-0.29866 -0.0217,-0.0332 -0.0737,-0.13525 -0.0737,-0.14457 0,-10e-4 -0.003,-0.009 -0.006,-0.0165 -0.022,-0.0491 -0.0456,-0.14026 -0.0613,-0.23658 -0.006,-0.042 -0.006,-0.3037 -2.6e-4,-0.33983 0.017,-0.0865 0.0203,-0.10584 0.0256,-0.12338 0.003,-0.0107 0.0126,-0.037 0.0179,-0.0585 0.006,-0.0214 0.0141,-0.0409 0.0157,-0.0433 0.002,-0.002 0.005,-0.009 0.006,-0.0152 0.006,-0.0245 0.0529,-0.11645 0.068,-0.13767 0.005,-0.006 0.0157,-0.0224 0.0236,-0.0356 0.0357,-0.0561 0.10528,-0.13122 0.16695,-0.17999 0.0919,-0.0728 0.21521,-0.13271 0.31625,-0.15364 0.0157,-0.003 0.0275,-0.006 0.0287,-0.006 0.019,-0.005 0.0317,-0.007 0.0731,-0.0125 0.0503,-0.006 0.21249,-0.006 0.25875,-5.2e-4 0.0616,0.008 0.13435,0.0209 0.15038,0.0271 0.008,0.003 0.006,0.003 0.0309,0.009 0.009,0.003 0.023,0.006 0.0266,0.008 0.003,0.001 0.006,0.003 0.008,0.003 0.0141,0.003 0.0383,0.0128 0.0416,0.0157 0.002,0.002 0.005,0.0773 0.005,0.16939 l 5.5e-4,0.1658 -0.0421,-0.0412 c -0.0812,-0.0795 -0.17564,-0.12914 -0.28763,-0.15128 -0.0654,-0.0129 -0.19219,-0.008 -0.24989,0.009 -0.14504,0.0446 -0.25473,0.14017 -0.32158,0.28011 -0.0228,0.0477 -0.0292,0.0635 -0.0408,0.10171 -0.006,0.0214 -0.0141,0.0448 -0.017,0.052 -0.002,0.007 -0.006,0.0286 -0.009,0.0476 -0.003,0.019 -0.006,0.0395 -0.008,0.0454 -0.0126,0.0518 -0.0141,0.3009 -0.003,0.35714 0.002,0.0118 0.006,0.0372 0.009,0.0563 0.003,0.019 0.008,0.0385 0.008,0.0433 10e-4,0.005 0.005,0.0194 0.008,0.0324 0.008,0.0297 0.0228,0.0715 0.0314,0.0895 0.003,0.007 0.006,0.0153 0.006,0.0173 0,0.005 0.0344,0.0704 0.0478,0.0903 0.10937,0.16184 0.24339,0.23981 0.43209,0.25151 0.044,0.003 0.12853,-0.003 0.15462,-0.0109 0.11753,-0.0348 0.18941,-0.0717 0.28007,-0.14366 0.03,-0.0239 0.0311,-0.0233 0.0228,0.0135 -0.002,0.0107 -0.008,0.039 -0.0141,0.0628 -0.005,0.0238 -0.0141,0.0618 -0.0176,0.0845 -0.005,0.0226 -0.0126,0.0601 -0.017,0.0831 -0.005,0.0231 -0.009,0.0448 -0.0141,0.0481 -0.003,0.003 -0.0176,0.008 -0.0328,0.0112 -0.0157,0.003 -0.0327,0.007 -0.0385,0.009 -0.019,0.007 -0.12273,0.0245 -0.1902,0.0322 -0.0344,0.004 -0.15226,0.008 -0.15478,0.005 z m 0.83851,-0.007 c -0.0278,-0.0104 -0.0526,-0.034 -0.0702,-0.0668 -0.0141,-0.0249 -0.0141,-0.0281 -0.0141,-0.0779 -6e-5,-0.0475 10e-4,-0.0541 0.0126,-0.0769 0.0157,-0.0306 0.0506,-0.0661 0.0734,-0.0722 0.0269,-0.007 0.0625,-0.005 0.0831,0.004 0.0251,0.0119 0.0528,0.0405 0.0671,0.0692 0.009,0.0215 0.0126,0.0286 0.0126,0.0736 1.5e-4,0.0455 -10e-4,0.052 -0.0126,0.0749 -0.0157,0.0327 -0.0456,0.0607 -0.0764,0.0721 -0.0292,0.0107 -0.0457,0.0107 -0.0746,0 z m -4.78823,-0.0564 c 0,-0.003 0.003,-0.0109 0.006,-0.0184 0.0157,-0.0337 0.0259,-0.0705 0.0434,-0.1565 0.006,-0.0303 0.009,-1.16705 0.003,-1.2922 -0.002,-0.0536 -0.008,-0.11492 -0.0126,-0.13636 -0.008,-0.0405 -0.0262,-0.10464 -0.0353,-0.12338 -0.003,-0.006 -0.006,-0.0157 -0.008,-0.0217 l -0.003,-0.0109 0.18451,1.6e-4 c 0.16067,1.3e-4 0.18436,9.7e-4 0.18358,0.006 -4.9e-4,0.003 -0.005,0.02 -0.009,0.0368 -0.009,0.0333 -0.0245,0.093 -0.0289,0.12337 -0.002,0.0107 -0.003,0.0234 -0.005,0.0282 -0.002,0.005 -0.003,0.31182 -0.003,0.68236 l -0.002,0.67369 0.009,0.002 c 0.0215,0.003 0.32576,-9.3e-4 0.33968,-0.005 0.006,-0.002 0.03,-0.005 0.0533,-0.008 0.0231,-0.003 0.044,-0.006 0.0463,-0.008 0.002,-10e-4 0.006,-0.003 0.008,-0.003 0.0174,-0.003 0.0855,-0.0292 0.13828,-0.0539 0.0347,-0.0162 0.063,-0.0274 0.063,-0.0249 0,0.002 -0.003,0.0135 -0.006,0.0246 -0.003,0.011 -0.0196,0.0659 -0.0357,0.12178 -0.0157,0.056 -0.0328,0.11424 -0.0376,0.12952 -0.005,0.0153 -0.008,0.0303 -0.008,0.0336 0,0.005 -0.077,0.006 -0.44231,0.006 -0.31843,0 -0.44229,-10e-4 -0.44229,-0.005 z m 1.74706,0 c 0,-0.003 0.003,-0.0109 0.006,-0.0184 0.0141,-0.0304 0.0328,-0.11334 0.0434,-0.19329 0.008,-0.0593 0.008,-1.23567 -5e-5,-1.29437 -0.0141,-0.10593 -0.027,-0.15248 -0.0632,-0.22755 -0.005,-0.009 -0.008,-0.0194 -0.008,-0.0217 0,-0.002 0.16271,-0.004 0.43457,-0.004 l 0.43455,-4e-5 0.003,0.0153 c 0.002,0.008 0.003,0.0425 0.003,0.0758 4.3e-4,0.0334 0.002,0.0684 0.002,0.0779 0.005,0.067 0.006,0.11038 0.005,0.11038 -0.002,0 -0.0141,-0.007 -0.0273,-0.0156 -0.0382,-0.0248 -0.0938,-0.0483 -0.14331,-0.0607 -0.0448,-0.0111 -0.0504,-0.0115 -0.21519,-0.0135 l -0.16917,-0.002 0.001,0.26996 10e-4,0.26998 0.13042,-2.9e-4 c 0.0784,-1.8e-4 0.14173,-0.002 0.15913,-0.005 0.0174,-0.003 0.0457,-0.0134 0.0718,-0.0263 l 0.0432,-0.0213 v 0.16165 0.16165 l -0.0299,-0.0132 c -0.017,-0.007 -0.0338,-0.015 -0.0386,-0.0171 -0.019,-0.008 -0.0633,-0.021 -0.0907,-0.0256 -0.0157,-0.003 -0.0781,-0.006 -0.13843,-0.007 l -0.10968,-0.002 10e-4,0.26362 c 10e-4,0.29262 0.005,0.38032 0.0193,0.44931 0.009,0.0473 0.0157,0.0687 0.0258,0.0925 l 0.0126,0.027 h -0.18104 c -0.12853,0 -0.18101,-10e-4 -0.18101,-0.005 z m 0.79834,-1.99696 c -0.0126,-0.003 -0.0262,-0.007 -0.0309,-0.0104 -0.017,-0.009 -0.0365,-0.0338 -0.0443,-0.0561 -0.006,-0.0198 -0.006,-0.0247 -0.002,-0.0411 0.0126,-0.0352 0.0262,-0.055 0.0602,-0.0796 0.0335,-0.0242 0.038,-0.0313 0.0264,-0.0406 -0.008,-0.007 -0.0607,-0.003 -0.11298,0.0104 -0.0157,0.004 -0.0349,0.0108 -0.0449,0.0159 -0.0245,0.0122 -0.0602,0.0485 -0.0647,0.0659 -0.003,0.0114 -0.005,0.0136 -0.0157,0.0125 -0.0157,-0.002 -0.0313,-0.0142 -0.0416,-0.0316 -0.0141,-0.0233 -0.0126,-0.0693 0.003,-0.0955 0.022,-0.0367 0.0639,-0.0658 0.10952,-0.0761 0.003,-8.2e-4 0.0295,-0.002 0.0575,-0.003 0.028,-7.7e-4 0.0539,-0.002 0.0575,-0.002 0.005,-4.5e-4 0.006,-0.008 0.006,-0.0378 0,-0.0361 4e-4,-0.0375 0.0141,-0.048 0.0453,-0.0368 0.10025,-0.0425 0.20567,-0.021 0.0182,0.004 0.0352,0.007 0.0375,0.008 0.002,7.8e-4 0.0142,0.003 0.0266,0.005 0.0196,0.003 0.0377,0.008 0.11282,0.0345 0.009,0.004 0.0239,0.008 0.0288,0.011 0.0201,0.009 0.0858,0.0252 0.10842,0.0259 0.0393,10e-4 0.0413,6.3e-4 0.0586,-0.0155 0.0157,-0.0137 0.017,-0.0177 0.017,-0.0367 0,-0.0202 -0.008,-0.0403 -0.043,-0.10151 -0.005,-0.008 -0.0184,-0.0378 -0.0354,-0.0757 -0.003,-0.008 -0.009,-0.023 -0.0157,-0.0324 -0.0157,-0.032 -0.0339,-0.0777 -0.044,-0.10389 -0.005,-0.0142 -0.0126,-0.0299 -0.0141,-0.0346 -0.008,-0.0198 -0.0261,-0.0672 -0.0372,-0.0995 -0.006,-0.019 -0.0157,-0.0405 -0.0176,-0.0476 -0.003,-0.007 -0.006,-0.0197 -0.008,-0.0279 -0.002,-0.008 -0.005,-0.018 -0.006,-0.0216 -0.002,-0.004 -0.006,-0.0173 -0.009,-0.0304 -0.003,-0.0131 -0.009,-0.0375 -0.0157,-0.0541 -0.009,-0.032 -0.0176,-0.0597 -0.0385,-0.14069 -0.02,-0.0772 -0.0317,-0.1257 -0.0363,-0.14935 -0.002,-0.0119 -0.008,-0.0411 -0.0141,-0.0649 -0.0126,-0.0595 -0.0251,-0.13157 -0.0355,-0.20304 -0.008,-0.0584 -0.0141,-0.0719 -0.0239,-0.0719 -0.003,0 -0.0174,0.0148 -0.0322,0.0328 -0.0157,0.0181 -0.0462,0.0479 -0.0693,0.0663 -0.0419,0.0333 -0.10512,0.069 -0.1081,0.0611 -5.5e-4,-0.002 0.002,-0.0104 0.005,-0.0176 0.008,-0.0165 0.0255,-0.0791 0.0365,-0.13387 0.009,-0.0511 0.0126,-0.22564 0.002,-0.2749 -0.003,-0.0166 -0.008,-0.0449 -0.0126,-0.0627 -0.008,-0.0508 -0.0327,-0.13457 -0.0421,-0.15204 -0.002,-0.004 -0.006,-0.0146 -0.008,-0.0239 -0.006,-0.0276 -0.0126,-0.0311 -0.0514,-0.0358 -0.0195,-0.002 -0.0404,-0.005 -0.0464,-0.006 -0.006,-10e-4 -0.031,-0.005 -0.0553,-0.008 -0.0244,-0.003 -0.0503,-0.007 -0.0575,-0.009 -0.006,-0.001 -0.0292,-0.005 -0.0486,-0.008 -0.0328,-0.005 -0.11219,-0.0214 -0.13262,-0.0265 -0.005,-10e-4 -0.0207,-0.005 -0.0353,-0.008 -0.0339,-0.007 -0.0779,-0.018 -0.10622,-0.026 -0.0126,-0.003 -0.0409,-0.0114 -0.0643,-0.0177 -0.0231,-0.006 -0.0541,-0.015 -0.0687,-0.0194 -0.0542,-0.0166 -0.15069,-0.0479 -0.15913,-0.0516 -0.005,-0.002 -0.017,-0.006 -0.0266,-0.009 -0.009,-0.003 -0.0196,-0.006 -0.022,-0.008 -0.002,-0.002 -0.009,-0.005 -0.0157,-0.006 -0.0141,-0.004 -0.0995,-0.0368 -0.13042,-0.0498 -0.0126,-0.005 -0.0262,-0.0109 -0.0309,-0.0129 -0.31675,-0.13104 -0.58488,-0.32712 -0.74295,-0.54334 -0.0385,-0.0528 -0.096,-0.15218 -0.12224,-0.21218 -0.006,-0.0166 -0.0157,-0.0362 -0.0192,-0.0433 -0.003,-0.007 -0.0126,-0.0295 -0.0177,-0.0498 -0.006,-0.0203 -0.0141,-0.0407 -0.0157,-0.0454 -0.005,-0.0133 -0.0222,-0.082 -0.0291,-0.12088 -0.003,-0.0192 -0.008,-0.0476 -0.0126,-0.0631 -0.006,-0.0372 -0.006,-0.29487 -1.9e-4,-0.33334 0.003,-0.0155 0.008,-0.0449 0.0126,-0.0653 0.008,-0.0451 0.0244,-0.1162 0.0291,-0.12513 0.002,-0.003 0.006,-0.0172 0.008,-0.0303 0.003,-0.0131 0.006,-0.0258 0.008,-0.0282 0.002,-0.002 0.005,-0.0104 0.006,-0.0171 0.002,-0.007 0.006,-0.0211 0.0126,-0.0312 0.005,-0.0104 0.008,-0.0195 0.008,-0.021 0,-0.005 0.0402,-0.0889 0.0847,-0.17701 0.0353,-0.07 0.0996,-0.16282 0.18389,-0.26565 0.0859,-0.10483 0.21265,-0.22745 0.35707,-0.34535 0.0526,-0.0429 0.25869,-0.2051 0.28603,-0.22506 0.0201,-0.0147 0.15054,-0.11926 0.18297,-0.1467 0.18053,-0.15275 0.26271,-0.24085 0.30873,-0.33096 0.0597,-0.11692 0.0481,-0.22468 -0.0335,-0.31029 -0.0239,-0.025 -0.0372,-0.0348 -0.0665,-0.0486 -0.0201,-0.009 -0.0475,-0.0196 -0.0608,-0.0224 -0.0141,-0.003 -0.0294,-0.006 -0.0354,-0.007 -0.0157,-0.003 -0.091,-0.003 -0.11722,2.7e-4 -0.0126,0.002 -0.0409,0.007 -0.0643,0.0116 -0.10104,0.021 -0.12916,0.0264 -0.18133,0.0347 -0.0305,0.005 -0.0652,0.0104 -0.0775,0.0118 -0.0222,0.003 -0.0222,0.003 -0.0429,0.0377 -0.0126,0.019 -0.023,0.0375 -0.0253,0.0411 -0.0548,0.0817 -0.0528,0.0788 -0.0765,0.10618 -0.006,0.007 -0.0126,0.0157 -0.0126,0.0178 0,0.002 0.0193,0.004 0.0431,0.004 0.0797,3.4e-4 0.12099,0.0191 0.18721,0.0853 0.0141,0.0137 0.0276,0.0248 0.0311,0.0248 0.008,-1.5e-4 0.0534,-0.0151 0.0661,-0.022 0.0253,-0.0136 0.047,-0.0281 0.061,-0.0403 l 0.0157,-0.0132 -0.003,0.0271 c -0.006,0.0668 -0.0666,0.13565 -0.15541,0.17867 -0.0196,0.009 -0.0276,0.0107 -0.0731,0.0107 -0.0481,-3e-5 -0.0525,-8e-4 -0.0806,-0.0139 -0.0509,-0.0238 -0.094,-0.0697 -0.13011,-0.13959 -0.0126,-0.0215 -0.0212,-0.0392 -0.0223,-0.0392 -0.002,0 -0.008,0.005 -0.0391,0.027 -0.002,0.002 -0.019,0.0144 -0.0368,0.0282 -0.0305,0.0235 -0.0321,0.0257 -0.0291,0.0379 0.0157,0.0595 -0.005,0.11601 -0.0584,0.16017 -0.0264,0.0219 -0.0649,0.0591 -0.0771,0.0742 -0.0126,0.0157 -0.0266,0.0494 -0.0266,0.0645 0,0.008 0.003,0.0221 0.006,0.0308 0.003,0.008 0.006,0.0161 0.006,0.0168 0,0.002 -0.039,-0.001 -0.0574,-0.005 -0.0365,-0.006 -0.0883,-0.0516 -0.098,-0.0857 -0.006,-0.0237 -0.006,-0.0823 3.4e-4,-0.10656 0.006,-0.0251 0.0258,-0.0511 0.0592,-0.083 0.0313,-0.0297 0.0632,-0.0511 0.13781,-0.0925 0.0987,-0.0548 0.16339,-0.10407 0.15289,-0.1165 -0.008,-0.009 -0.03,-0.0113 -0.0633,-0.004 -0.0374,0.007 -0.0457,0.0108 -0.096,0.0362 -0.082,0.0415 -0.10528,0.0514 -0.13671,0.0582 -0.0415,0.009 -0.0555,0.009 -0.10449,-0.001 -0.0662,-0.0136 -0.10733,-0.0431 -0.11157,-0.0801 l -0.002,-0.0198 0.0157,0.006 c 0.022,0.009 0.0588,0.008 0.0803,-0.002 0.009,-0.004 0.0192,-0.008 0.0209,-0.008 0.002,-9e-5 0.0347,-0.0154 0.0731,-0.0341 0.0907,-0.0442 0.1166,-0.0527 0.16459,-0.0544 0.0718,-0.003 0.12099,0.0123 0.17063,0.0518 l 0.0239,0.0191 0.0173,-0.0177 c 0.0242,-0.0246 0.0622,-0.0799 0.0858,-0.1248 0.0157,-0.0283 0.0141,-0.0292 -0.0313,-0.047 -0.049,-0.0192 -0.0677,-0.0396 -0.0584,-0.0637 0.003,-0.0107 0.005,-0.0108 0.0575,-0.0108 0.0294,0 0.0622,-0.002 0.0727,-0.005 0.0187,-0.004 0.0193,-0.005 0.0267,-0.0314 0.0157,-0.0536 0.0204,-0.0828 0.0212,-0.11714 l 10e-4,-0.035 -0.0288,6.8e-4 c -0.0157,3.7e-4 -0.0368,0.002 -0.0464,0.004 -0.0855,0.0143 -0.14724,0.0317 -0.22335,0.0623 -0.0182,0.007 -0.0338,0.0134 -0.0349,0.0134 -0.005,5e-5 0.006,-0.0366 0.0195,-0.0634 0.028,-0.0576 0.0685,-0.0944 0.14126,-0.12913 0.0269,-0.0128 0.0702,-0.0302 0.0968,-0.0389 0.0553,-0.0181 0.0658,-0.0229 0.0624,-0.0286 -0.002,-0.002 -0.005,-0.0147 -0.008,-0.0277 -0.006,-0.0247 -0.0355,-0.0815 -0.0531,-0.10402 l -0.009,-0.0132 0.0251,-8.6e-4 c 0.0291,-10e-4 0.0792,-0.009 0.0904,-0.0151 0.006,-0.003 0.008,-10e-4 0.0126,0.008 0.002,0.006 0.006,0.0179 0.009,0.025 0.0126,0.0246 0.0187,0.0434 0.0313,0.0811 0.0126,0.0368 0.0141,0.0379 0.0262,0.0378 0.0547,-2.9e-4 0.21278,-0.009 0.21576,-0.0121 0.002,-0.002 5.5e-4,-0.0107 -0.003,-0.0194 -0.003,-0.008 -0.006,-0.0263 -0.006,-0.0391 0,-0.0198 0.002,-0.0262 0.0157,-0.0426 0.0354,-0.0454 0.0874,-0.0689 0.17291,-0.0785 0.0388,-0.004 0.0911,-0.002 0.19558,0.0104 0.0387,0.004 0.17419,0.0358 0.2092,0.0487 0.006,0.002 0.0591,0.0182 0.12822,0.0386 0.0157,0.004 0.0328,0.0104 0.0375,0.0121 0.005,0.002 0.0416,0.0136 0.0819,0.026 0.0401,0.0124 0.0779,0.0241 0.0841,0.0262 0.009,0.003 0.033,0.009 0.13043,0.0367 0.0126,0.003 0.0336,0.008 0.0478,0.0105 0.0141,0.002 0.0273,0.005 0.0292,0.006 0.003,0.002 0.0456,0.009 0.12194,0.0203 0.0245,0.003 0.0795,0.002 0.0995,-0.003 0.0699,-0.0166 0.13734,-0.0565 0.14315,-0.0848 0.002,-0.0108 0.005,-0.0131 0.0126,-0.012 0.0226,0.003 0.0231,0.0609 5.5e-4,0.10711 -0.0199,0.0416 -0.088,0.0962 -0.1499,0.12081 -0.0431,0.0171 -0.099,0.0308 -0.15915,0.0389 -0.0507,0.007 -0.16134,0.003 -0.21009,-0.007 -0.009,-0.002 -0.0361,-0.004 -0.0559,-0.004 -0.028,-1.5e-4 -0.0365,10e-4 -0.0385,0.006 -0.005,0.0109 0.002,0.0194 0.0209,0.029 0.0218,0.0109 0.0616,0.0405 0.0811,0.0605 0.0188,0.0194 0.0603,0.0917 0.072,0.12573 0.0157,0.0453 0.0212,0.10989 0.0157,0.16582 -0.003,0.0262 -0.009,0.0602 -0.0157,0.0754 -0.005,0.0153 -0.008,0.0294 -0.008,0.0315 0,0.002 -0.008,0.0221 -0.0195,0.0447 -0.0291,0.061 -0.0778,0.13084 -0.16084,0.23107 -0.0416,0.0503 -0.0456,0.0546 -0.0984,0.11311 -0.0207,0.023 -0.0506,0.0561 -0.0665,0.0738 -0.0339,0.038 -0.0676,0.0747 -0.071,0.0777 -0.008,0.007 -0.1224,0.14266 -0.1477,0.1753 -0.036,0.0463 -0.10293,0.1443 -0.12382,0.18136 -0.0283,0.0499 -0.0775,0.14956 -0.0775,0.15653 0,10e-4 -0.003,0.009 -0.006,0.0165 -0.008,0.0182 -0.0275,0.0749 -0.0314,0.0936 -0.002,0.008 -0.005,0.018 -0.006,0.0216 -0.002,0.004 -0.006,0.0232 -0.009,0.0434 -0.003,0.0203 -0.006,0.0417 -0.008,0.0476 -0.005,0.0186 -0.006,0.18238 -0.003,0.21645 0.0142,0.10046 0.0336,0.1558 0.0669,0.18163 0.0398,0.0308 0.0655,0.0284 0.10418,-0.0104 0.0443,-0.0444 0.0797,-0.13351 0.11518,-0.2905 0.003,-0.0143 0.006,-0.0293 0.008,-0.0335 0.002,-0.004 0.006,-0.0226 0.009,-0.0411 0.005,-0.0185 0.0126,-0.0502 0.0174,-0.0704 0.005,-0.0203 0.0126,-0.0492 0.0157,-0.0643 0.003,-0.0152 0.008,-0.0293 0.008,-0.0316 0.002,-0.002 0.006,-0.0181 0.009,-0.0352 0.0157,-0.0599 0.0223,-0.0832 0.0259,-0.0898 0.002,-0.004 0.005,-0.0133 0.006,-0.0213 0.003,-0.0159 0.0322,-0.0933 0.0445,-0.12006 0.003,-0.009 0.0126,-0.0252 0.017,-0.0359 0.0171,-0.0379 0.054,-0.11075 0.0691,-0.13636 0.0322,-0.0545 0.086,-0.13052 0.11329,-0.16017 0.006,-0.007 0.0266,-0.0305 0.0443,-0.0519 0.039,-0.047 0.13576,-0.14078 0.22381,-0.21694 0.0635,-0.055 0.26484,-0.22504 0.35345,-0.29864 0.12602,-0.10464 0.20492,-0.17581 0.31865,-0.28718 0.11298,-0.11067 0.12477,-0.12309 0.19464,-0.20386 0.15682,-0.18136 0.25411,-0.31396 0.34947,-0.47606 0.0195,-0.0332 0.0882,-0.16582 0.0882,-0.17037 0,-0.001 0.005,-0.0128 0.009,-0.0254 0.005,-0.0126 0.0126,-0.0277 0.0141,-0.0337 0.002,-0.006 0.005,-0.0128 0.006,-0.0152 0.003,-0.004 0.0283,-0.0756 0.0478,-0.13636 0.0157,-0.0476 0.0199,-0.082 0.0199,-0.14502 0,-0.0649 -0.005,-0.0983 -0.0214,-0.14817 -0.0126,-0.0334 -0.0383,-0.0896 -0.0489,-0.1012 -0.008,-0.009 -0.003,-0.0206 0.009,-0.0238 0.0126,-0.003 0.0594,0.006 0.0685,0.0132 0.003,0.003 0.009,0.006 0.0141,0.007 0.0157,0.005 0.0979,0.066 0.12005,0.0887 0.0437,0.0449 0.0701,0.10015 0.0856,0.17897 0.0126,0.0601 0.002,0.23026 -0.0157,0.27672 -0.002,0.006 -0.005,0.0182 -0.006,0.0272 -0.003,0.0192 -0.0222,0.0773 -0.0313,0.0968 -0.003,0.007 -0.006,0.015 -0.006,0.0166 0,0.008 -0.0622,0.13471 -0.0874,0.17748 -0.0343,0.0587 -0.12241,0.18644 -0.17041,0.24675 -0.0602,0.0757 -0.13608,0.16447 -0.18895,0.22067 -0.0712,0.0757 -0.27279,0.26887 -0.32686,0.31322 -0.005,0.004 -0.0184,0.0151 -0.03,0.0245 -0.0126,0.009 -0.0303,0.0253 -0.0413,0.0349 -0.009,0.009 -0.0407,0.034 -0.0665,0.0539 -0.0255,0.02 -0.0515,0.0406 -0.0575,0.0458 -0.0371,0.032 -0.0907,0.0767 -0.15258,0.12724 -0.0388,0.0318 -0.0716,0.0592 -0.0731,0.0608 -10e-4,0.002 -0.0157,0.0141 -0.033,0.0276 -0.017,0.0135 -0.0408,0.0337 -0.0537,0.0449 -0.0126,0.0112 -0.0405,0.0358 -0.0622,0.0548 -0.0522,0.0456 -0.18336,0.17429 -0.21642,0.21205 -0.0157,0.0165 -0.03,0.0339 -0.0349,0.0385 -0.008,0.008 -0.0959,0.12202 -0.10748,0.13962 -0.0214,0.0319 -0.0421,0.0653 -0.0602,0.0969 -0.0126,0.0203 -0.0228,0.0397 -0.025,0.0433 -0.0157,0.0249 -0.0611,0.12149 -0.0773,0.16234 -0.006,0.0166 -0.0157,0.0362 -0.0176,0.0433 -0.003,0.007 -0.006,0.0179 -0.008,0.0238 -0.002,0.006 -0.005,0.0147 -0.006,0.0194 -0.005,0.011 -0.0344,0.0988 -0.0528,0.15801 -0.008,0.025 -0.017,0.0532 -0.0199,0.0628 -0.003,0.009 -0.0126,0.0348 -0.0178,0.0563 -0.017,0.056 -0.0456,0.14034 -0.0534,0.158 -0.0572,0.12726 -0.12964,0.20865 -0.23058,0.2597 -0.0294,0.0149 -0.0407,0.0265 -0.0407,0.0414 0,0.0265 0.0404,0.0321 0.0995,0.0138 0.0921,-0.0285 0.18501,-0.0953 0.25949,-0.18643 0.019,-0.0234 0.0346,-0.0442 0.0346,-0.0462 0,-0.002 0.003,-0.006 0.005,-0.009 0.017,-0.0163 0.0727,-0.12392 0.096,-0.18321 0.005,-0.0142 0.0141,-0.0321 0.017,-0.0396 0.003,-0.007 0.006,-0.0155 0.006,-0.0177 0,-0.005 0.0358,-0.10068 0.0649,-0.17218 0.0288,-0.0707 0.0827,-0.18099 0.10355,-0.21212 0.052,-0.0771 0.13388,-0.15565 0.26711,-0.25627 0.0548,-0.0415 0.0787,-0.0581 0.20567,-0.14249 0.0305,-0.0203 0.0781,-0.0525 0.10623,-0.0716 0.028,-0.0191 0.0668,-0.0453 0.0863,-0.0583 0.0338,-0.0224 0.0655,-0.0443 0.14111,-0.0969 0.16645,-0.11582 0.39297,-0.2889 0.4892,-0.37371 0.008,-0.007 0.0355,-0.0312 0.0597,-0.0525 0.0878,-0.0771 0.23872,-0.22876 0.30814,-0.30975 0.0993,-0.11588 0.24153,-0.30372 0.30786,-0.40661 0.0141,-0.0215 0.0306,-0.0475 0.0372,-0.0577 0.0561,-0.0869 0.1661,-0.28716 0.20276,-0.36911 0.005,-0.0119 0.0157,-0.0323 0.0206,-0.0454 0.006,-0.0131 0.0126,-0.0277 0.0157,-0.0324 0.002,-0.005 0.008,-0.0184 0.0141,-0.0303 0.0336,-0.0771 0.0753,-0.18959 0.11047,-0.2987 0.017,-0.0503 0.0655,-0.22548 0.0727,-0.25757 0.003,-0.0179 0.008,-0.0481 0.0126,-0.0671 0.002,-0.0191 0.006,-0.0434 0.008,-0.0541 0.005,-0.0244 0.009,-0.0684 0.0126,-0.1203 0.002,-0.0494 0.006,-0.0565 0.0292,-0.0452 0.0176,0.008 0.0542,0.0512 0.079,0.0919 0.085,0.13945 0.10528,0.2739 0.0649,0.43287 -0.009,0.0391 -0.0244,0.0871 -0.0292,0.0975 -0.002,0.005 -0.006,0.0175 -0.009,0.0281 -0.009,0.0289 -0.0198,0.0567 -0.027,0.0721 -0.003,0.007 -0.006,0.015 -0.006,0.0165 0,0.002 -0.005,0.0139 -0.0126,0.0275 -0.006,0.0135 -0.0157,0.0334 -0.0206,0.0441 -0.0189,0.0407 -0.0707,0.14258 -0.096,0.18832 -0.0157,0.0262 -0.0302,0.0554 -0.0354,0.0649 -0.005,0.009 -0.0157,0.03 -0.0248,0.0455 -0.008,0.0155 -0.0242,0.0427 -0.0339,0.0606 -0.009,0.0179 -0.0275,0.0461 -0.039,0.0628 -0.0126,0.0166 -0.031,0.0459 -0.0435,0.0649 -0.0126,0.019 -0.0244,0.0366 -0.0264,0.039 -0.002,0.002 -0.009,0.0151 -0.0195,0.0281 -0.008,0.0131 -0.0233,0.0336 -0.0319,0.0454 -0.008,0.0119 -0.0184,0.0252 -0.0214,0.0295 -0.0174,0.0247 -0.13623,0.17761 -0.15336,0.19758 -0.0126,0.013 -0.0226,0.0267 -0.0255,0.0303 -0.009,0.0123 -0.0643,0.0756 -0.0894,0.10379 -0.0836,0.0937 -0.1048,0.11569 -0.22588,0.2341 -0.14534,0.14218 -0.25627,0.23762 -0.40268,0.34678 -0.0207,0.0154 -0.0685,0.0513 -0.10638,0.0798 -0.0798,0.0603 -0.091,0.0685 -0.12382,0.0909 -0.0327,0.0223 -0.19983,0.13137 -0.29857,0.1946 -0.16729,0.10709 -0.31433,0.20377 -0.32827,0.21576 -0.017,0.0142 -0.0182,0.0223 -0.005,0.0287 0.0141,0.007 0.022,0.005 0.0673,-0.008 0.0992,-0.0306 0.20831,-0.0743 0.34722,-0.13883 0.0295,-0.0137 0.0577,-0.0262 0.0629,-0.0277 0.0126,-0.003 0.0272,0.0107 0.0278,0.0258 3.2e-4,0.006 10e-4,0.0152 10e-4,0.0206 0.003,0.054 -0.0357,0.13608 -0.0907,0.18946 -0.071,0.0688 -0.1973,0.14259 -0.32904,0.19232 -0.017,0.006 -0.0369,0.0142 -0.0442,0.0174 -0.006,0.003 -0.0292,0.0108 -0.0486,0.0171 -0.0195,0.006 -0.0383,0.013 -0.042,0.0148 -0.003,0.002 -0.0247,0.009 -0.0464,0.0159 -0.0218,0.007 -0.0446,0.017 -0.0504,0.0225 -0.009,0.009 -0.009,0.0104 -0.003,0.0186 0.0126,0.0128 0.0322,0.0117 0.13262,-0.006 0.0218,-0.004 0.0459,-0.009 0.053,-0.0112 0.006,-0.002 0.0393,-0.0104 0.0709,-0.0175 0.0316,-0.007 0.0614,-0.0152 0.0665,-0.0172 0.005,-0.002 0.0177,-0.006 0.0288,-0.008 0.0222,-0.005 0.12115,-0.0372 0.13482,-0.0433 0.005,-0.002 0.0258,-0.0104 0.0464,-0.0171 0.0207,-0.007 0.0438,-0.0161 0.0517,-0.0196 0.0413,-0.0188 0.0569,-0.0105 0.0534,0.0284 -0.003,0.033 -0.0383,0.094 -0.0756,0.13018 -0.043,0.0421 -0.11989,0.0891 -0.19307,0.11842 -0.0157,0.006 -0.0328,0.0133 -0.0376,0.0154 -0.022,0.009 -0.0781,0.0297 -0.10843,0.0386 -0.0182,0.005 -0.0372,0.0114 -0.042,0.0134 -0.005,0.002 -0.0228,0.007 -0.0398,0.0107 -0.0905,0.0205 -0.1356,0.0325 -0.14283,0.0381 -0.003,0.002 -0.005,0.009 -0.005,0.0153 10e-4,0.008 0.005,0.0114 0.0157,0.0132 0.0192,0.003 0.11345,0.003 0.15478,-7.8e-4 0.0479,-0.004 0.13356,-0.0151 0.14283,-0.018 0.003,-10e-4 0.0305,-0.006 0.0584,-0.0112 0.0281,-0.005 0.0718,-0.0129 0.0973,-0.0177 0.0841,-0.0158 0.12052,-0.0214 0.12319,-0.019 0.005,0.004 0.002,0.0348 -0.005,0.0507 -0.003,0.008 -0.0126,0.0224 -0.0195,0.0303 -0.006,0.008 -0.0188,0.0233 -0.0265,0.0344 -0.0193,0.0278 -0.0338,0.0413 -0.072,0.0664 -0.0775,0.0511 -0.18187,0.0954 -0.26494,0.11252 -0.0841,0.0174 -0.0883,0.0179 -0.19125,0.0258 -0.006,4.7e-4 -0.0211,0.0154 -0.0211,0.0208 2.1e-4,0.0155 0.0218,0.0227 0.0888,0.0296 0.0253,0.002 0.0539,0.006 0.0635,0.008 0.0201,0.004 0.24102,0.002 0.27558,-0.002 l 0.0233,-0.003 v 0.0176 c 0,0.009 -0.002,0.0201 -0.005,0.0233 -0.003,0.003 -0.0126,0.0142 -0.0185,0.0245 -0.0295,0.0427 -0.10261,0.0987 -0.16528,0.12676 -0.0476,0.0214 -0.0553,0.0243 -0.0715,0.0277 -0.008,0.002 -0.0184,0.005 -0.022,0.006 -0.0141,0.007 -0.10151,0.0225 -0.14315,0.0246 -0.0401,0.002 -0.0438,0.003 -0.0481,0.0122 -0.002,0.005 -0.003,0.0126 -0.002,0.0159 0.002,0.006 0.0567,0.0378 0.0984,0.0568 0.0157,0.006 0.0297,0.0137 0.0336,0.0157 0.017,0.008 0.15383,0.0605 0.17212,0.0653 0.009,0.003 0.0219,0.006 0.0244,0.006 0.002,7.1e-4 0.0184,0.005 0.0353,0.0104 0.0409,0.0121 0.0905,0.0247 0.12603,0.0323 0.0157,0.003 0.0338,0.007 0.0398,0.009 0.0357,0.009 0.15966,0.0271 0.23221,0.0341 0.0157,10e-4 0.0316,0.003 0.0376,0.005 0.006,10e-4 0.0629,0.003 0.12602,0.004 0.0632,10e-4 0.11659,0.002 0.11832,0.002 0.002,6e-5 0.003,0.005 0.003,0.0105 0,0.0242 -0.1378,0.13043 -0.22519,0.17363 -0.0438,0.0216 -0.0779,0.0368 -0.083,0.0368 -0.002,0 -0.008,0.003 -0.0157,0.006 -0.006,0.003 -0.0223,0.008 -0.0353,0.0113 -0.0141,0.003 -0.0272,0.007 -0.0313,0.009 -0.0126,0.005 -0.0864,0.0165 -0.12099,0.0175 -0.0753,0.002 -0.21111,-0.0162 -0.2819,-0.0377 -0.0459,-0.014 -0.0899,-0.0283 -0.0985,-0.032 -0.005,-0.002 -0.0302,-0.013 -0.0566,-0.0242 -0.0525,-0.0225 -0.12162,-0.059 -0.17184,-0.0909 -0.0291,-0.0184 -0.13074,-0.0907 -0.13655,-0.0968 -10e-4,-0.001 -0.02,-0.0169 -0.042,-0.0348 -0.0218,-0.0179 -0.0696,-0.0621 -0.10606,-0.0985 -0.0365,-0.0364 -0.0696,-0.0661 -0.0734,-0.0661 -0.0126,0 -0.0215,0.0149 -0.0215,0.0327 0,0.0148 0.02,0.0632 0.0321,0.0776 0.002,0.002 0.0141,0.0189 0.0245,0.0368 0.0179,0.0279 0.046,0.0669 0.0654,0.0906 0.0553,0.0677 0.13482,0.15003 0.20515,0.21241 0.0569,0.0504 0.0647,0.0571 0.15493,0.13196 0.0281,0.0232 0.0616,0.0512 0.075,0.0622 0.0141,0.011 0.0311,0.0259 0.0398,0.033 0.008,0.007 0.0178,0.015 0.0206,0.0173 0.003,0.002 0.0157,0.0131 0.0285,0.0238 0.088,0.0729 0.19478,0.17393 0.25058,0.23693 0.0141,0.016 0.0294,0.033 0.0338,0.0379 0.0126,0.0135 0.0497,0.0655 0.0742,0.10398 0.0361,0.0563 0.0974,0.18054 0.0927,0.18782 -5.5e-4,9.2e-4 5.5e-4,0.003 0.003,0.004 0.006,0.004 0.0363,0.0926 0.0481,0.14234 0.0332,0.14216 0.041,0.29013 0.0215,0.40143 -0.0126,0.067 -0.0157,0.0853 -0.0214,0.10881 -0.008,0.033 -0.0255,0.0711 -0.0352,0.0789 -0.003,0.003 -0.009,0.005 -0.0141,0.003 -0.006,-0.002 -0.006,-0.0123 -0.003,-0.0795 0.003,-0.0816 -10e-4,-0.13587 -0.0157,-0.21759 -0.0157,-0.0926 -0.035,-0.16112 -0.0594,-0.21429 -0.0613,-0.13397 -0.11487,-0.21307 -0.22972,-0.33983 -0.0445,-0.049 -0.15524,-0.15594 -0.25334,-0.24458 -0.20007,-0.18065 -0.25194,-0.23037 -0.32975,-0.31602 -0.11298,-0.12437 -0.18542,-0.23586 -0.26865,-0.41342 -0.009,-0.0203 -0.0189,-0.0417 -0.0207,-0.0476 -0.002,-0.006 -0.005,-0.0128 -0.006,-0.0152 -0.002,-0.002 -0.005,-0.0118 -0.008,-0.021 -0.003,-0.009 -0.008,-0.0218 -0.0126,-0.0282 -0.003,-0.006 -0.006,-0.0144 -0.006,-0.018 -8e-5,-0.003 -0.003,-0.0143 -0.008,-0.0238 -0.005,-0.009 -0.008,-0.0197 -0.008,-0.0228 -8e-5,-0.003 -0.005,-0.005 -0.0126,-0.005 -0.008,0 -0.0141,0.004 -0.0201,0.014 -0.008,0.0126 -0.008,0.0185 -0.006,0.0574 0.002,0.041 0.0157,0.11731 0.0254,0.14502 10e-4,0.003 0.008,0.0269 0.017,0.0519 0.008,0.025 0.017,0.0484 0.0179,0.052 0.002,0.003 0.008,0.0182 0.0157,0.0324 0.017,0.0356 0.0498,0.10026 0.063,0.12121 0.0218,0.0346 0.0607,0.0914 0.0781,0.11472 0.009,0.0131 0.0193,0.0258 0.0211,0.0282 0.008,0.0117 0.0691,0.0842 0.0812,0.0974 0.006,0.008 0.0297,0.0327 0.0493,0.0542 0.0624,0.0687 0.1695,0.1746 0.23789,0.23509 0.1026,0.0907 0.14534,0.12706 0.19391,0.16474 0.025,0.0194 0.0295,0.0249 0.027,0.0324 -0.0141,0.0427 -0.0198,0.24346 -0.008,0.32511 0.008,0.0586 0.0308,0.15704 0.042,0.18182 0.002,0.005 0.006,0.0164 0.008,0.026 0.003,0.009 0.006,0.0192 0.008,0.0216 0.002,0.002 0.005,0.0117 0.008,0.0208 0.006,0.0224 0.0519,0.10708 0.0742,0.14156 0.0479,0.0736 0.10889,0.1431 0.15367,0.17547 0.009,0.007 0.0187,0.0139 0.0198,0.0153 10e-4,10e-4 0.006,0.005 0.0126,0.008 0.005,0.003 0.0196,0.015 0.0325,0.0256 l 0.0231,0.0193 -0.009,0.007 c -0.054,0.0428 -0.22242,0.006 -0.34342,-0.075 -0.0228,-0.0153 -0.03,-0.0104 -0.0259,0.0186 0.002,0.0104 0.005,0.0499 0.008,0.088 0.003,0.0381 0.006,0.0761 0.008,0.0844 10e-4,0.008 0.005,0.0385 0.008,0.0671 0.003,0.0286 0.008,0.0578 0.008,0.0649 10e-4,0.007 0.006,0.0373 0.0126,0.0671 0.017,0.10016 0.0498,0.26636 0.0657,0.32684 0.002,0.009 0.009,0.0426 0.0189,0.0735 0.008,0.031 0.0176,0.0689 0.022,0.0844 0.005,0.0155 0.009,0.0398 0.0157,0.0541 0.009,0.0396 0.0251,0.0817 0.0294,0.0871 0.002,0.003 0.006,0.0133 0.009,0.0238 0.0171,0.0513 0.0265,0.0745 0.0468,0.11542 0.0341,0.0686 0.0765,0.10652 0.13624,0.12195 0.008,0.002 0.022,0.005 0.0294,0.007 0.006,0.002 0.0749,0.003 0.15038,0.004 0.14456,3.9e-4 0.15966,0.002 0.20567,0.016 0.0797,0.025 0.11439,0.07 0.0988,0.12823 -0.008,0.0322 -0.0277,0.0606 -0.0605,0.0896 -0.0316,0.0281 -0.0591,0.0389 -0.0668,0.0262 -0.0209,-0.0344 -0.0402,-0.0511 -0.0889,-0.0771 -0.017,-0.008 -0.071,-0.023 -0.10371,-0.027 -0.0141,-0.002 -0.0302,-0.005 -0.0376,-0.007 -0.009,-0.003 -0.0828,-0.011 -0.18135,-0.0196 -0.0292,-0.002 -0.28964,-0.002 -0.32068,1.1e-4 -0.0157,10e-4 -0.0695,0.005 -0.11942,0.008 -0.05,0.003 -0.0957,0.007 -0.10182,0.008 -0.006,0.001 -0.031,0.005 -0.0553,0.009 -0.0526,0.008 -0.052,0.008 -0.0577,0.0111 -0.002,10e-4 -0.0126,0.004 -0.022,0.005 -0.0347,0.006 -0.12398,0.0495 -0.14676,0.0713 -0.0204,0.0196 -0.0369,0.0504 -0.0369,0.0691 0,0.0152 -0.001,0.0153 -0.0331,0.007 z m -0.42495,-2.8234 c 0.019,-0.007 0.003,-0.0256 -0.0504,-0.0604 -0.0474,-0.0303 -0.13922,-0.0972 -0.18578,-0.1351 -0.0368,-0.03 -0.1673,-0.15918 -0.19707,-0.19517 -0.0651,-0.0788 -0.12461,-0.17033 -0.17406,-0.26787 -0.0412,-0.0811 -0.0867,-0.21008 -0.10245,-0.28909 -0.002,-0.0119 -0.006,-0.0343 -0.009,-0.0498 -0.009,-0.0452 -0.0207,-0.14769 -0.0228,-0.22943 -0.002,-0.0647 -3e-4,-0.0868 0.008,-0.15151 0.0184,-0.12548 0.0453,-0.22536 0.0902,-0.3355 0.005,-0.0119 0.0141,-0.0323 0.0185,-0.0455 0.0242,-0.0596 0.0779,-0.15999 0.11769,-0.21966 0.0141,-0.0196 0.0237,-0.0395 0.0237,-0.0443 0,-0.009 -0.0157,-0.0194 -0.0237,-0.0161 -0.008,0.003 -0.0806,0.062 -0.10245,0.0839 -0.0512,0.0514 -0.11298,0.11886 -0.12555,0.13692 -0.003,0.005 -0.008,0.0104 -0.008,0.0115 -0.006,0.005 -0.063,0.0919 -0.0848,0.12987 -0.0731,0.12509 -0.11989,0.24261 -0.13827,0.34632 -0.003,0.0203 -0.006,0.0417 -0.008,0.0476 -0.006,0.034 -0.008,0.0601 -0.008,0.14088 -5e-5,0.0811 0.002,0.11814 0.008,0.14917 10e-4,0.006 0.005,0.0293 0.008,0.052 0.006,0.0435 0.008,0.046 0.0126,0.0563 0.002,0.003 0.003,0.0124 0.005,0.0194 0.005,0.0211 0.0247,0.0855 0.0314,0.10026 0.003,0.007 0.006,0.0156 0.006,0.0179 0,0.009 0.0504,0.11347 0.0745,0.15464 0.0141,0.0238 0.0509,0.0805 0.0591,0.0909 0.0641,0.0817 0.1477,0.17124 0.19464,0.20875 0.083,0.0664 0.0896,0.0712 0.15367,0.11273 0.0962,0.0622 0.20998,0.11617 0.32953,0.15622 0.0218,0.007 0.0478,0.0162 0.0575,0.0198 0.0192,0.007 0.033,0.008 0.0438,0.004 z m -0.71617,-3.30706 c 0.15572,-0.0267 0.23423,-0.0652 0.23423,-0.1148 0,-0.0213 -0.009,-0.0315 -0.042,-0.0433 -0.0201,-0.007 -0.0383,-0.009 -0.10936,-0.0114 l -0.085,-0.002 -2.1e-4,0.019 c -9e-5,0.0105 -0.002,0.0268 -0.003,0.0364 -0.0157,0.073 -0.0193,0.0871 -0.0225,0.0909 -0.002,0.002 -0.005,0.0109 -0.006,0.019 l -0.003,0.0146 0.0157,-0.003 c 0.008,-0.002 0.0188,-0.004 0.0237,-0.005 z m 0.51751,-0.21894 c 0.017,-0.002 0.035,-0.006 0.0398,-0.008 0.0126,-0.005 0.0841,-0.0212 0.10921,-0.0245 0.0126,-0.002 0.0217,-0.005 0.0234,-0.009 0.003,-0.008 -1.4e-4,-0.0115 -0.0266,-0.0197 -0.0332,-0.0105 -0.14551,-0.0328 -0.22444,-0.0447 -0.0453,-0.007 -0.0479,-0.007 -0.0564,7.3e-4 -0.0126,0.011 -0.0126,0.0589 -2.3e-4,0.0788 0.021,0.0338 0.0476,0.039 0.13529,0.0268 z m -1.41676,6.32885 c -0.025,-0.004 -0.0457,-0.0172 -0.0636,-0.0395 -0.0141,-0.016 -0.0157,-0.0208 -0.0141,-0.0443 5.5e-4,-0.0503 0.031,-0.0915 0.094,-0.12785 0.0517,-0.0297 0.0471,-0.0464 -0.0126,-0.0464 -0.0893,0 -0.18944,0.0476 -0.23499,0.11173 -0.006,0.009 -0.006,0.009 -0.0211,0.002 -0.0229,-0.0115 -0.0379,-0.0379 -0.0399,-0.0702 -0.002,-0.0237 -6e-5,-0.0311 0.009,-0.0513 0.0262,-0.0505 0.0913,-0.0734 0.20831,-0.0728 l 0.0581,2e-4 -0.002,-0.0269 c -0.002,-0.0206 -4.9e-4,-0.0295 0.005,-0.0379 0.0184,-0.0274 0.0742,-0.0501 0.12995,-0.0528 0.0294,-10e-4 0.0823,0.003 0.096,0.008 0.002,8.7e-4 0.005,0.002 0.006,0.002 0.002,5.1e-4 0.0256,0.008 0.053,0.0183 0.13089,0.0457 0.12366,0.044 0.19151,0.0444 l 0.0619,2.9e-4 0.0292,-0.0205 c 0.0305,-0.0213 0.0627,-0.0577 0.0874,-0.0986 0.0269,-0.0447 0.0486,-0.0798 0.0536,-0.0865 0.003,-0.004 0.0126,-0.0194 0.022,-0.0348 0.009,-0.0154 0.0262,-0.0426 0.0374,-0.0605 0.18105,-0.29099 0.2655,-0.44953 0.3724,-0.69912 0.006,-0.0143 0.0141,-0.0299 0.0157,-0.0346 0.002,-0.005 0.009,-0.0233 0.0176,-0.0411 0.006,-0.0179 0.017,-0.0386 0.0201,-0.0461 0.003,-0.007 0.006,-0.015 0.006,-0.0166 0,-0.002 0.003,-0.009 0.006,-0.0166 0.008,-0.0173 0.017,-0.0408 0.0361,-0.10026 0.008,-0.0262 0.0174,-0.0515 0.0195,-0.0563 0.005,-0.0125 0.0185,-0.0717 0.017,-0.074 -10e-4,-10e-4 -0.0187,0.0114 -0.0391,0.0277 -0.10654,0.0852 -0.19024,0.12725 -0.26615,0.13369 l -0.0302,0.002 0.005,-0.0126 c 0.002,-0.007 0.006,-0.0164 0.008,-0.0212 0.0212,-0.044 0.0619,-0.16009 0.0866,-0.24675 0.03,-0.10504 0.0566,-0.26099 0.0624,-0.3658 0.002,-0.025 0.003,-0.0476 0.005,-0.0503 0.002,-0.003 0.017,10e-4 0.0426,0.0136 0.0649,0.03 0.0858,0.0389 0.14142,0.0602 0.0292,0.0111 0.057,0.022 0.0619,0.0241 0.005,0.002 0.0287,0.0104 0.053,0.0175 0.0244,0.007 0.0482,0.0153 0.053,0.0172 0.005,0.002 0.0198,0.006 0.0331,0.008 0.0141,0.003 0.0284,0.006 0.0332,0.009 0.008,0.004 0.0553,0.0129 0.11502,0.022 0.0341,0.005 0.0396,0.008 0.0401,0.0223 10e-4,0.0375 0.0141,0.15692 0.0174,0.17618 10e-4,0.006 0.005,0.0281 0.008,0.0491 0.003,0.0211 0.008,0.0416 0.009,0.0454 0.002,0.004 0.005,0.015 0.006,0.0244 0.003,0.0239 0.0311,0.10683 0.0448,0.13853 0.036,0.0826 0.055,0.12011 0.0797,0.15658 0.008,0.0123 0.0157,0.0235 0.0157,0.0249 0,10e-4 -0.005,0.002 -0.0126,0.002 -0.0471,0 -0.14582,-0.0522 -0.22332,-0.11798 -0.019,-0.0162 -0.0361,-0.0285 -0.038,-0.0273 -0.002,10e-4 -0.005,0.0223 -0.006,0.047 -0.002,0.0246 -0.008,0.0662 -0.0141,0.0922 -0.0126,0.0467 -0.0377,0.12805 -0.0486,0.14902 -0.003,0.006 -0.0157,0.0303 -0.027,0.0541 -0.0189,0.0378 -0.0734,0.12223 -0.12775,0.19696 -0.009,0.0131 -0.0264,0.0365 -0.0374,0.0519 -0.009,0.0155 -0.0215,0.0301 -0.0236,0.0324 -0.002,0.002 -0.0478,0.064 -0.10198,0.13692 -0.054,0.0729 -0.10166,0.1372 -0.10591,0.14285 -0.0399,0.053 -0.14974,0.20235 -0.16543,0.22456 -0.009,0.0155 -0.0276,0.0389 -0.0374,0.052 -0.0239,0.0323 -0.0394,0.0638 -0.0394,0.08 0,0.009 0.005,0.0176 0.0157,0.0284 l 0.0157,0.015 0.15797,0.002 c 0.0867,10e-4 0.16287,0.004 0.169,0.005 0.006,0.002 0.0217,0.005 0.0346,0.007 0.0583,0.011 0.1136,0.0507 0.12507,0.0896 0.003,0.0112 0.005,0.0213 0.005,0.0225 -2.7e-4,10e-4 -0.002,0.0129 -0.003,0.026 -0.006,0.0569 -0.033,0.0964 -0.082,0.12379 -0.0262,0.0146 -0.0344,0.0139 -0.0321,-0.003 0.005,-0.0287 -0.0157,-0.0502 -0.0698,-0.0747 -0.0434,-0.0197 -0.0814,-0.0286 -0.17029,-0.0399 -0.0864,-0.011 -0.54979,-0.011 -0.63691,-6e-5 -0.006,9.2e-4 -0.0322,0.004 -0.0553,0.006 -0.0768,0.008 -0.16508,0.0305 -0.19981,0.0499 -0.0276,0.0154 -0.0635,0.0478 -0.0718,0.0649 -0.005,0.009 -0.006,0.0231 -0.006,0.0338 0.001,0.0173 0.001,0.0181 -0.0126,0.0185 -0.006,2e-4 -0.0217,-10e-4 -0.0324,-0.003 z m 3.59642,-1.01948 c -0.002,-0.004 -3.3e-4,-0.0132 0.003,-0.0206 0.003,-0.007 0.008,-0.0261 0.0126,-0.0416 0.003,-0.0155 0.008,-0.033 0.009,-0.039 0.005,-0.0139 0.017,-0.0649 0.0245,-0.11473 0.003,-0.0214 0.008,-0.0526 0.0126,-0.0693 0.006,-0.0406 0.008,-0.24851 1.6e-4,-0.29005 -0.003,-0.0166 -0.008,-0.0498 -0.0126,-0.0736 -0.006,-0.0484 -0.0193,-0.10505 -0.0328,-0.15368 -0.005,-0.0179 -0.0126,-0.0442 -0.0157,-0.0585 -0.003,-0.0143 -0.008,-0.0299 -0.0126,-0.0346 -0.002,-0.005 -0.006,-0.0174 -0.009,-0.0282 -0.003,-0.0107 -0.006,-0.0213 -0.008,-0.0236 -0.002,-0.002 -0.003,-0.006 -0.003,-0.0104 0,-0.003 -0.0126,-0.0336 -0.0248,-0.0673 -0.0265,-0.0656 -0.0641,-0.14193 -0.0946,-0.19131 -0.009,-0.0166 -0.0218,-0.0358 -0.0259,-0.0427 -0.0292,-0.0494 -0.1728,-0.25358 -0.19085,-0.27115 -10e-4,-10e-4 -0.0171,-0.0197 -0.0354,-0.0411 -0.11455,-0.13447 -0.24536,-0.24644 -0.56392,-0.4822 -0.11266,-0.0834 -0.23221,-0.18412 -0.23221,-0.19567 0,-0.004 10e-4,-0.008 0.002,-0.008 0.009,0 0.0954,0.0384 0.10025,0.0448 0.002,0.002 0.003,0.003 0.005,0.003 0.002,-8.5e-4 0.0157,0.003 0.0388,0.0135 0.009,0.004 0.0215,0.008 0.0243,0.008 0.003,8e-5 0.0141,0.004 0.0226,0.008 0.009,0.004 0.0193,0.008 0.0214,0.008 0.002,8e-5 0.009,0.003 0.0176,0.006 0.008,0.003 0.0269,0.0104 0.0426,0.0156 0.0157,0.005 0.0407,0.0141 0.0553,0.0195 0.0157,0.005 0.0534,0.0191 0.0863,0.0303 0.0328,0.0113 0.0657,0.0231 0.0731,0.0261 0.006,0.003 0.0192,0.007 0.0266,0.008 0.006,0.002 0.0157,0.004 0.0176,0.006 0.002,0.002 0.0141,0.005 0.0244,0.009 0.009,0.003 0.0218,0.007 0.0244,0.008 0.005,0.003 0.0209,0.009 0.0943,0.0368 0.0226,0.008 0.0445,0.0172 0.0486,0.0194 0.003,0.002 0.0173,0.008 0.0295,0.0133 0.24821,0.10595 0.43422,0.24926 0.57979,0.44669 0.0336,0.0456 0.10779,0.1779 0.10811,0.19237 0,0.002 0.003,0.009 0.006,0.0153 0.003,0.006 0.0126,0.0308 0.0204,0.0541 0.008,0.0234 0.0157,0.0463 0.0181,0.0511 0.006,0.0171 0.0317,0.13087 0.0394,0.18615 0.0126,0.0844 0.008,0.28765 -0.005,0.34511 -0.002,0.0104 -0.006,0.0341 -0.009,0.0532 -0.0126,0.066 -0.019,0.0914 -0.0471,0.17558 -0.0126,0.0361 -0.0405,0.10994 -0.0481,0.12451 -0.002,0.004 -0.0173,0.0345 -0.0338,0.0678 -0.0353,0.0714 -0.11094,0.20238 -0.13545,0.23507 -0.009,0.0126 -0.0223,0.0248 -0.0284,0.027 -0.0141,0.005 -0.0157,0.005 -0.0181,-0.003 z m -0.50778,-2.57744 c -0.0292,-0.002 -0.0591,-0.004 -0.0665,-0.006 -0.006,-10e-4 -0.0297,-0.005 -0.0498,-0.008 -0.0199,-0.003 -0.0379,-0.007 -0.0396,-0.008 -0.005,-0.005 0.005,-0.0107 0.0251,-0.0133 0.18947,-0.0238 0.3993,-0.0955 0.62441,-0.21328 0.0583,-0.0304 0.0743,-0.0349 0.0743,-0.0202 0,0.007 -0.009,0.0276 -0.0222,0.0448 -0.003,0.006 -0.0141,0.0195 -0.0204,0.0302 -0.006,0.0107 -0.0157,0.0223 -0.0181,0.026 -0.003,0.003 -0.0141,0.0183 -0.0253,0.0325 -0.009,0.0143 -0.0223,0.0285 -0.0248,0.0316 -0.003,0.003 -0.0157,0.0177 -0.0275,0.0324 -0.0126,0.0148 -0.0308,0.0352 -0.0405,0.0454 -0.0192,0.0199 -0.0157,0.0189 -0.093,0.0267 -0.0445,0.004 -0.22599,0.004 -0.29634,1.7e-4 z m -0.33149,-0.0947 c -10e-4,-0.002 0.006,-0.008 0.017,-0.0135 0.0537,-0.0293 0.1144,-0.0784 0.14645,-0.11851 0.0423,-0.0529 0.0607,-0.10025 0.0618,-0.16042 5.5e-4,-0.0296 -0.006,-0.0254 0.0735,-0.0416 0.0548,-0.0111 0.0553,-0.0112 0.0863,-0.0191 0.0157,-0.004 0.0295,-0.007 0.0332,-0.008 0.0306,-0.007 0.0492,-0.0126 0.0643,-0.0176 0.009,-0.003 0.0405,-0.013 0.0687,-0.0218 0.0507,-0.0159 0.0907,-0.03 0.12822,-0.0455 0.0804,-0.033 0.12288,-0.0514 0.16015,-0.0693 0.0236,-0.0113 0.044,-0.0195 0.0453,-0.0182 0.001,10e-4 0.002,2.6e-4 0.002,-0.002 0,-0.003 0.003,-0.006 0.008,-0.007 0.008,-0.002 0.13891,-0.075 0.19681,-0.10912 0.0157,-0.008 0.0484,-0.0318 0.0753,-0.0514 0.0269,-0.0196 0.0545,-0.0387 0.0616,-0.0424 0.0126,-0.006 0.0141,-0.006 0.0211,3.7e-4 0.0126,0.0104 0.009,0.0226 -0.006,0.0483 -0.008,0.0127 -0.0157,0.0245 -0.0157,0.0263 0,0.009 -0.0842,0.10806 -0.1367,0.15999 -0.0566,0.0559 -0.0864,0.0809 -0.2038,0.17066 -0.0445,0.034 -0.14221,0.0962 -0.18574,0.11833 -0.0141,0.007 -0.0253,0.0133 -0.0265,0.0145 -0.009,0.009 -0.18408,0.0873 -0.24772,0.11035 -0.14142,0.0512 -0.14614,0.0526 -0.27423,0.0797 -0.0709,0.015 -0.14849,0.0242 -0.15242,0.0181 z m 0.26576,-0.45167 c 0.0479,-0.0483 0.0836,-0.10898 0.0924,-0.15693 0.002,-0.009 0.005,-0.0205 0.006,-0.0244 0.002,-0.004 0.005,-0.0261 0.005,-0.0493 0.001,-0.0232 0.003,-0.0431 0.003,-0.0441 10e-4,-10e-4 0.0236,-0.009 0.05,-0.0186 0.0264,-0.009 0.0589,-0.0208 0.0724,-0.026 0.0141,-0.005 0.0313,-0.012 0.0397,-0.0151 0.008,-0.003 0.0255,-0.0104 0.0376,-0.0152 0.0126,-0.005 0.028,-0.0119 0.0353,-0.0151 0.12587,-0.0536 0.37652,-0.18069 0.4401,-0.22321 0.006,-0.004 0.0399,-0.026 0.0753,-0.0487 0.0353,-0.0228 0.0891,-0.0595 0.11989,-0.0818 0.0308,-0.0222 0.0676,-0.0487 0.0819,-0.0588 0.0141,-0.0104 0.035,-0.0267 0.046,-0.0368 0.0399,-0.0367 0.0963,-0.0835 0.10732,-0.0893 0.0506,-0.0265 0.0212,0.0768 -0.0536,0.18784 -0.11597,0.17258 -0.29392,0.33321 -0.54057,0.48799 -0.0231,0.0145 -0.0528,0.0332 -0.0662,0.0417 -0.0509,0.0322 -0.25303,0.12484 -0.32753,0.15003 -10e-4,4.1e-4 -0.005,0.002 -0.008,0.003 -0.009,0.004 -0.0896,0.0299 -0.0949,0.0312 -0.002,5.4e-4 -0.006,0.002 -0.0126,0.003 -0.0157,0.006 -0.13137,0.0327 -0.14346,0.0333 -0.002,9e-5 0.0126,-0.0159 0.0313,-0.0355 z m 0.0883,-0.36364 c 0.005,-0.009 0.0258,-0.0355 0.0291,-0.038 0.002,-10e-4 0.008,-0.0159 0.017,-0.0324 0.006,-0.0166 0.0157,-0.0334 0.0176,-0.0372 0.0126,-0.0234 0.0184,-0.11738 0.009,-0.16052 l -0.003,-0.0204 0.0534,-0.0266 c 0.12539,-0.0621 0.29199,-0.15281 0.37205,-0.20232 0.0195,-0.012 0.0514,-0.0316 0.0709,-0.0433 0.0322,-0.0195 0.0852,-0.0544 0.16796,-0.11106 0.18553,-0.12647 0.36759,-0.27714 0.54801,-0.45353 0.0863,-0.0843 0.10292,-0.0988 0.11282,-0.0977 0.0126,10e-4 0.0126,0.002 0.009,0.0305 -0.002,0.10005 -0.1012,0.27324 -0.25041,0.43827 -0.0839,0.0928 -0.22062,0.2175 -0.33273,0.30331 -0.0426,0.0326 -0.15446,0.11156 -0.17778,0.12548 -0.008,0.004 -0.0426,0.0262 -0.0775,0.048 -0.0638,0.0399 -0.12665,0.076 -0.20009,0.11499 -0.0394,0.021 -0.22451,0.11083 -0.26345,0.12795 -0.009,0.005 -0.0354,0.0158 -0.0544,0.0244 -0.0354,0.0161 -0.055,0.0202 -0.049,0.0104 z m 0.0503,-0.39427 c 0,-0.003 0.003,-0.0107 0.008,-0.0165 0.0157,-0.0181 0.0308,-0.0615 0.0377,-0.10151 0.006,-0.035 0.006,-0.0424 0,-0.0772 -0.003,-0.0212 -0.009,-0.0455 -0.0157,-0.054 -0.0171,-0.0335 -0.017,-0.0372 0.0126,-0.0528 0.0141,-0.007 0.0354,-0.0202 0.0476,-0.0276 0.0126,-0.007 0.0569,-0.0349 0.0996,-0.0608 0.13277,-0.0809 0.28796,-0.18399 0.42239,-0.28046 0.0743,-0.0534 0.10465,-0.0761 0.20619,-0.15469 0.0792,-0.0613 0.19882,-0.16071 0.28087,-0.23338 0.0622,-0.055 0.25193,-0.23823 0.30065,-0.29019 0.0237,-0.0254 0.10135,-0.11031 0.12083,-0.13203 0.022,-0.0248 0.0919,-0.10852 0.13074,-0.15693 0.0394,-0.0489 0.046,-0.0536 0.0661,-0.046 0.008,0.003 0.009,0.0336 0.003,0.0555 -0.0141,0.0449 -0.033,0.1 -0.0383,0.10989 -0.003,0.006 -0.006,0.0132 -0.006,0.015 -7e-5,0.006 -0.0512,0.1047 -0.0819,0.15679 -0.0272,0.0465 -0.10151,0.16118 -0.10795,0.16667 -0.002,10e-4 -0.009,0.0119 -0.0178,0.0238 -0.1092,0.15538 -0.33144,0.37791 -0.57352,0.57415 -0.0247,0.0199 -0.0504,0.0405 -0.0575,0.0458 -0.0157,0.0113 -0.0302,0.023 -0.061,0.047 -0.0126,0.009 -0.0415,0.0311 -0.0646,0.0475 -0.0231,0.0164 -0.0429,0.0309 -0.0442,0.0322 -0.003,0.003 -0.046,0.034 -0.0621,0.0445 -0.006,0.004 -0.027,0.0182 -0.0464,0.0314 -0.0377,0.0257 -0.14063,0.0929 -0.19904,0.12997 -0.0542,0.0345 -0.20949,0.12652 -0.27866,0.16524 -0.0848,0.0476 -0.0819,0.0461 -0.0819,0.0389 z m -0.85816,-0.19565 c -0.005,-0.005 -0.003,-0.0104 0.002,-0.0249 0.0157,-0.0333 0.20388,-0.21045 0.37604,-0.35229 0.0126,-0.0104 0.0369,-0.0303 0.0552,-0.0455 0.0184,-0.0151 0.0429,-0.0353 0.0548,-0.0448 0.0126,-0.009 0.0357,-0.029 0.053,-0.0433 0.0173,-0.0142 0.0413,-0.0338 0.053,-0.0433 0.0126,-0.009 0.0357,-0.029 0.0533,-0.0433 0.0173,-0.0143 0.0423,-0.0347 0.0553,-0.0455 0.23056,-0.18871 0.42668,-0.37432 0.54549,-0.51625 0.027,-0.0323 0.0575,-0.0701 0.0671,-0.083 0.005,-0.006 0.0141,-0.0169 0.0176,-0.0231 0.005,-0.006 0.0203,-0.0268 0.0341,-0.0461 0.10512,-0.1451 0.1739,-0.26245 0.23355,-0.39863 0.0361,-0.0828 0.0712,-0.20229 0.086,-0.29472 0.005,-0.0349 0.006,-0.0527 0.003,-0.0886 -0.005,-0.0478 -0.003,-0.0561 0.0141,-0.0561 0.009,0 0.0206,0.0116 0.042,0.045 0.0431,0.0673 0.0633,0.13699 0.0652,0.22341 5.2e-4,0.0257 -0.008,0.11212 -0.0141,0.12987 -0.002,0.006 -0.003,0.0128 -0.003,0.0152 -0.0126,0.0492 -0.0283,0.0961 -0.0528,0.14747 -0.0239,0.0499 -0.0801,0.14838 -0.11565,0.20223 -0.0374,0.0567 -0.0435,0.0659 -0.0462,0.0681 -0.002,10e-4 -0.005,0.007 -0.008,0.0127 -0.003,0.006 -0.006,0.0126 -0.009,0.0152 -0.002,0.002 -0.017,0.0214 -0.0314,0.042 -0.0278,0.0377 -0.0344,0.0465 -0.0684,0.0892 -0.0313,0.0394 -0.10968,0.12864 -0.14912,0.16967 -0.0731,0.076 -0.18044,0.17809 -0.24381,0.2319 -0.017,0.0143 -0.0396,0.0339 -0.0506,0.0435 -0.009,0.009 -0.0418,0.0349 -0.0687,0.0561 -0.0269,0.0212 -0.0497,0.0397 -0.0509,0.0411 -0.006,0.007 -0.16525,0.12473 -0.20846,0.15355 -0.0471,0.0314 -0.11141,0.075 -0.15195,0.10306 -0.0674,0.0465 -0.12822,0.0889 -0.13262,0.0925 -0.002,0.002 -0.0173,0.0123 -0.0332,0.0229 -0.0718,0.0482 -0.16848,0.12092 -0.30435,0.22905 -0.0228,0.0181 -0.0311,0.0222 -0.0448,0.0222 -0.009,0 -0.0192,-0.003 -0.0225,-0.006 z m 1.62292,-0.74063 c -0.009,-0.0129 -0.003,-0.022 0.18811,-0.22002 0.0366,-0.0379 0.0696,-0.0721 0.0732,-0.0758 0.008,-0.008 0.0863,-0.0935 0.10135,-0.11057 0.017,-0.0191 0.0674,-0.0806 0.0776,-0.0948 0.005,-0.006 0.017,-0.0222 0.027,-0.0345 0.0559,-0.0684 0.12461,-0.16189 0.16814,-0.228 0.0454,-0.0692 0.0503,-0.077 0.0888,-0.1405 0.003,-0.005 0.008,-0.0145 0.0126,-0.0217 0.003,-0.007 0.008,-0.0159 0.0126,-0.0194 0.0189,-0.0288 0.0693,-0.1214 0.12822,-0.23592 0.0501,-0.0973 0.0611,-0.12048 0.0738,-0.15585 0.003,-0.009 0.008,-0.0212 0.009,-0.026 0.002,-0.005 0.009,-0.0253 0.0176,-0.0454 0.006,-0.0203 0.0157,-0.0407 0.0176,-0.0454 0.002,-0.005 0.006,-0.014 0.008,-0.0206 0.005,-0.014 0.0196,-0.016 0.0265,-0.004 0.0141,0.0252 0.022,0.0688 0.0297,0.1542 0.003,0.046 0.003,0.05 1.1e-4,0.0953 -0.008,0.0887 -0.0245,0.15148 -0.0588,0.2191 -0.0126,0.0245 -0.0735,0.11871 -0.0812,0.12506 -0.002,0.001 -0.0141,0.0168 -0.0267,0.0346 -0.0277,0.0373 -0.11769,0.14853 -0.14378,0.17766 -0.009,0.0108 -0.0297,0.033 -0.0442,0.0495 -0.0916,0.10244 -0.28506,0.29184 -0.39181,0.38327 -0.0179,0.0155 -0.0446,0.0389 -0.0592,0.0521 -0.0306,0.0276 -0.0559,0.0495 -0.0929,0.08 -0.0141,0.0119 -0.0353,0.0294 -0.0463,0.039 -0.0126,0.009 -0.0278,0.0232 -0.0374,0.0303 -0.009,0.007 -0.0262,0.0203 -0.0374,0.0292 -0.0223,0.0178 -0.0317,0.0199 -0.0407,0.009 z"
       id="path48579" /><path
       style="opacity:1;fill:#ffd700;fill-opacity:1;fill-rule:evenodd;stroke-width:0.264583;paint-order:normal"
       d="m 849.41414,908.77436 -7.71419,16.07238"
       id="path34176" /><g
       style="display:inline;overflow:visible;fill:#000000"
       id="g15490-7-8"
       transform="matrix(0.0459183,0,0,0.07157848,791.57112,919.84674)"><path
         d="m 21.6203,69.825 c -5.84,-0.232 -10.618,-1.83 -14.354,-4.798 -0.713,-0.567 -2.412,-2.267 -2.982,-2.984 -1.515,-1.905 -2.545,-3.759 -3.232,-5.816 -2.114,-6.332 -1.026,-14.641 3.112,-23.76 3.543,-7.807 9.01,-15.55 18.548,-26.274 C 24.1173,4.615 28.3013,0 28.3283,0 c 0.01,0 -0.218,0.395 -0.505,0.876 -2.48,4.154 -4.602,9.047 -5.758,13.283 -1.857,6.797 -1.633,12.63 0.656,17.153 1.579,3.116 4.286,5.815 7.33,7.307 5.329,2.611 13.131,2.827 22.659,0.632 0.656,-0.152 33.162,-8.781 72.236,-19.176 39.074,-10.396 71.049,-18.895 71.054,-18.888 0.011,0.009 -90.78,38.859 -137.911,59.014 -7.464,3.191 -9.46,3.997 -12.969,5.229 -8.97,3.15 -17.005,4.653 -23.5,4.395 z"
         id="path15481-8-0"
         style="fill:#000000" /></g></g><style
     id="style2"
     type="text/css">.st0{fill:#00285e}.st1{fill:#fff}.st2{fill:#6caddf}.st6{fill:#ffc758}.st8{fill:#d4a11e}</style></svg>
