<?xml version="1.0" encoding="UTF-8" standalone="no"?>
<!-- Created with Inkscape (http://www.inkscape.org/) -->

<svg
   width="2154"
   height="1371.9451"
   viewBox="0 0 569.91248 362.99379"
   version="1.1"
   id="svg157218"
   xml:space="preserve"
   xmlns="http://www.w3.org/2000/svg"
   xmlns:svg="http://www.w3.org/2000/svg"><defs
     id="defs157215"><rect
       x="683.25348"
       y="2246.9292"
       width="1910.4268"
       height="392.08661"
       id="rect174329" /><rect
       x="683.25348"
       y="2246.9292"
       width="1910.4268"
       height="392.08661"
       id="rect174329-5" /></defs><g
     id="layer1"
     transform="translate(-135.63514,-129.39232)"><g
       id="Pitch"
       transform="matrix(0.26458333,0,0,0.26458333,135.54377,132.24243)"
       style="fill:none;fill-rule:evenodd;stroke:none;stroke-width:1"><g
         id="g168624"
         style="fill-opacity:1"
         transform="translate(0.34533242,-6.8270708)"><g
           id="Mowing-pattern"
           transform="translate(0,57.927033)"
           style="fill-opacity:1"><polyline
             id="Base-green-colour"
             fill="#01ba5c"
             fill-rule="nonzero"
             points="1763.47151 -2.84217094e-14 390.528487 -2.84217094e-14 -5.68434189e-14 1310.07297 2154 1310.07297 1763.47151 -2.84217094e-14"
             style="fill-opacity:1" /><polygon
             id="Rectangle-Copy-9"
             fill="#00ae55"
             points="2112.3136,1310.073 39.030428,1310.073 71.278682,1202.1122 2079.8672,1202.1122 "
             style="fill-opacity:1" /><polygon
             id="Rectangle-Copy-8"
             fill="#01ba5c"
             points="2081.3888,1202.1122 69.865414,1202.1122 122.48084,1022.7188 2028.7802,1022.7188 "
             style="fill-opacity:1" /><polygon
             id="Rectangle-Copy-7"
             fill="#00ae55"
             points="2029.8291,1022.7188 121.55519,1022.7188 170.29146,859.36054 1979.7891,859.36054 "
             style="fill-opacity:1" /><polygon
             id="Rectangle-Copy-6"
             fill="#01ba5c"
             points="1981.4009,859.36054 170.96205,859.36054 214.0766,711.03526 1938.3855,711.03526 "
             style="fill-opacity:1" /><polygon
             id="Rectangle-Copy-5"
             fill="#00ae55"
             points="1939.0783,711.03526 214.95905,711.03526 251.29338,575.73856 1899.6407,575.73856 "
             style="fill-opacity:1" /><polygon
             id="polygon168274"
             fill="#01ba5c"
             points="1899.9333,575.73856 252.89566,575.73856 287.63372,452.46823 1863.5644,452.46823 "
             style="fill-opacity:1" /><polygon
             id="Rectangle-Copy-4"
             fill="#00ae55"
             points="1862.816,452.46823 288.85711,452.46823 321.33721,340.22208 1829.8793,340.22208 "
             style="fill-opacity:1" /><polygon
             id="Rectangle-3"
             fill="#01ba5c"
             points="1828.057,340.22208 324.56907,340.22208 351.20656,237.9979 1801.0243,237.9979 "
             style="fill-opacity:1" /><polygon
             id="Rectangle-2"
             fill="#00ae55"
             fill-rule="nonzero"
             points="1801.102,237.9979 352.52236,237.9979 378.18704,144.7935 1775.0566,144.7935 "
             style="fill-opacity:1" /><polygon
             id="Rectangle-1"
             fill="#01ba5c"
             points="1773.6666,144.7935 379.86132,144.7935 403.02161,58.604493 1750.7697,58.604493 "
             style="fill-opacity:1" /><polygon
             id="polygon168280"
             fill="#01ba5c"
             points="1773.6666,144.7935 379.86132,144.7935 403.02161,58.604493 1750.7697,58.604493 "
             style="fill-opacity:1" /></g><g
           id="goal"
           transform="translate(890.2076)"
           style="fill-opacity:1"><g
             id="goal-shadow"
             transform="translate(0,57.92478)"
             fill="#000000"
             fill-rule="nonzero"
             opacity="0.102"
             style="fill-opacity:1"><polygon
               id="Path"
               points="344.42444,57.604548 374.37448,0 0,0 29.950038,57.604548 "
               style="fill-opacity:1" /></g><g
             id="Group"
             transform="translate(32.478733)"
             style="fill-opacity:1"><path
               d="M 8.0034375,4.7986715 15.206531,8.9091673 V 17.130159 L 8.0034375,21.240655 0.80034375,17.130159 V 8.9091673 L 8.0034375,4.7986715 m 0,-1.006652 L 0,8.4058413 v 9.2276437 l 8.0034375,4.613821 8.0034375,-4.613821 V 8.4058413 Z"
               id="Shape"
               fill="#cecece"
               fill-rule="nonzero"
               style="fill-opacity:1" /><path
               d="m 23.209968,4.7986715 7.203094,4.1104958 v 8.2209917 l -7.203094,4.110496 -7.203093,-4.110496 V 8.9091673 l 7.203093,-4.1104958 m 0,-1.006652 -8.003437,4.6138218 v 9.2276437 l 8.003437,4.613821 8.003438,-4.613821 V 8.4058413 Z"
               id="path168286"
               fill="#cecece"
               fill-rule="nonzero"
               style="fill-opacity:1" /><path
               d="m 38.4165,4.7986715 7.203093,4.1104958 V 17.130159 L 38.4165,21.240655 31.213406,17.130159 V 8.9091673 L 38.4165,4.7986715 m 0,-1.006652 -8.003438,4.6138218 v 9.2276437 l 8.003438,4.613821 8.003437,-4.613821 V 8.4058413 Z"
               id="path168288"
               fill="#cecece"
               fill-rule="nonzero"
               style="fill-opacity:1" /><path
               d="m 53.623031,4.7986715 7.203094,4.1104958 v 8.2209917 l -7.203094,4.110496 -7.203094,-4.110496 V 8.9091673 l 7.203094,-4.1104958 m 0,-1.006652 -8.003438,4.6138218 v 9.2276437 l 8.003438,4.613821 8.003437,-4.613821 V 8.4058413 Z"
               id="path168290"
               fill="#cecece"
               fill-rule="nonzero"
               style="fill-opacity:1" /><path
               d="m 68.829562,4.7986715 7.203094,4.1104958 v 8.2209917 l -7.203094,4.110496 -7.203094,-4.110496 V 8.9091673 l 7.203094,-4.1104958 m 0,-1.006652 -8.003437,4.6138218 V 17.633485 L 68.829562,22.247306 76.833,17.633485 V 8.4058413 Z"
               id="path168292"
               fill="#cecece"
               fill-rule="nonzero"
               style="fill-opacity:1" /><path
               d="m 84.036093,4.7986715 7.203094,4.1104958 V 17.130159 L 84.036093,21.240655 76.833,17.130159 V 8.9091673 l 7.203093,-4.1104958 m 0,-1.006652 -8.003437,4.6138218 v 9.2276437 l 8.003437,4.613821 8.003438,-4.613821 V 8.4058413 Z"
               id="path168294"
               fill="#cecece"
               fill-rule="nonzero"
               style="fill-opacity:1" /><path
               d="m 99.242624,4.7986715 7.203096,4.1104958 v 8.2209917 l -7.203096,4.110496 -7.203093,-4.110496 V 8.9091673 l 7.203093,-4.1104958 m 0,-1.006652 -8.003437,4.6138218 v 9.2276437 l 8.003437,4.613821 8.003436,-4.613821 V 8.4058413 Z"
               id="path168296"
               fill="#cecece"
               fill-rule="nonzero"
               style="fill-opacity:1" /><path
               d="m 114.44916,4.7986715 7.20309,4.1104958 v 8.2209917 l -7.20309,4.110496 -7.2031,-4.110496 V 8.9091673 l 7.2031,-4.1104958 m 0,-1.006652 -8.00344,4.6138218 v 9.2276437 l 8.00344,4.613821 8.00343,-4.613821 V 8.4058413 Z"
               id="path168298"
               fill="#cecece"
               fill-rule="nonzero"
               style="fill-opacity:1" /><path
               d="m 129.65569,4.7986715 7.20309,4.1104958 v 8.2209917 l -7.20309,4.110496 -7.2031,-4.110496 V 8.9091673 l 7.2031,-4.1104958 m 0,-1.006652 -8.00344,4.6138218 v 9.2276437 l 8.00344,4.613821 8.00343,-4.613821 V 8.4058413 Z"
               id="path168300"
               fill="#cecece"
               fill-rule="nonzero"
               style="fill-opacity:1" /><path
               d="m 144.86222,4.7986715 7.20309,4.1104958 v 8.2209917 l -7.20309,4.110496 -7.2031,-4.110496 V 8.9091673 l 7.2031,-4.1104958 m 0,-1.006652 -8.00344,4.6138218 v 9.2276437 l 8.00344,4.613821 8.00343,-4.613821 V 8.4058413 Z"
               id="path168302"
               fill="#cecece"
               fill-rule="nonzero"
               style="fill-opacity:1" /><path
               d="m 160.06875,4.7986715 7.20309,4.1104958 v 8.2209917 l -7.20309,4.110496 -7.2031,-4.110496 V 8.9091673 l 7.2031,-4.1104958 m 0,-1.006652 -8.00344,4.6138218 v 9.2276437 l 8.00344,4.613821 8.00344,-4.613821 V 8.4058413 Z"
               id="path168304"
               fill="#cecece"
               fill-rule="nonzero"
               style="fill-opacity:1" /><path
               d="m 175.27528,4.7986715 7.20309,4.1104958 v 8.2209917 l -7.20309,4.110496 -7.20309,-4.110496 V 8.9091673 l 7.20309,-4.1104958 m 0,-1.006652 -8.00344,4.6138218 v 9.2276437 l 8.00344,4.613821 8.00344,-4.613821 V 8.4058413 Z"
               id="path168306"
               fill="#cecece"
               fill-rule="nonzero"
               style="fill-opacity:1" /><path
               d="m 190.48181,4.7986715 7.20309,4.1104958 v 8.2209917 l -7.20309,4.110496 -7.20309,-4.110496 V 8.9091673 l 7.20309,-4.1104958 m 0,-1.006652 -8.00344,4.6138218 v 9.2276437 l 8.00344,4.613821 8.00344,-4.613821 V 8.4058413 Z"
               id="path168308"
               fill="#cecece"
               fill-rule="nonzero"
               style="fill-opacity:1" /><path
               d="m 205.68834,4.7986715 7.2031,4.1104958 v 8.2209917 l -7.2031,4.110496 -7.20309,-4.110496 V 8.9091673 l 7.20309,-4.1104958 m 0,-1.006652 -8.00344,4.6138218 v 9.2276437 l 8.00344,4.613821 8.00344,-4.613821 V 8.4058413 Z"
               id="path168310"
               fill="#cecece"
               fill-rule="nonzero"
               style="fill-opacity:1" /><path
               d="m 220.89487,4.7986715 7.2031,4.1104958 v 8.2209917 l -7.2031,4.110496 -7.20309,-4.110496 V 8.9091673 l 7.20309,-4.1104958 m 0,-1.006652 -8.00343,4.6138218 v 9.2276437 l 8.00343,4.613821 8.00344,-4.613821 V 8.4058413 Z"
               id="path168312"
               fill="#cecece"
               fill-rule="nonzero"
               style="fill-opacity:1" /><path
               d="m 236.1014,4.7986715 7.2031,4.1104958 v 8.2209917 l -7.2031,4.110496 -7.20309,-4.110496 V 8.9091673 l 7.20309,-4.1104958 m 0,-1.006652 -8.00343,4.6138218 v 9.2276437 l 8.00343,4.613821 8.00344,-4.613821 V 8.4058413 Z"
               id="path168314"
               fill="#cecece"
               fill-rule="nonzero"
               style="fill-opacity:1" /><path
               d="m 251.30794,4.7986715 7.20309,4.1104958 v 8.2209917 l -7.20309,4.110496 -7.2031,-4.110496 V 8.9091673 l 7.2031,-4.1104958 m 0,-1.006652 -8.00344,4.6138218 v 9.2276437 l 8.00344,4.613821 8.00343,-4.613821 V 8.4058413 Z"
               id="path168316"
               fill="#cecece"
               fill-rule="nonzero"
               style="fill-opacity:1" /><path
               d="m 266.51447,4.7986715 7.20309,4.1104958 v 8.2209917 l -7.20309,4.110496 -7.2031,-4.110496 V 8.9091673 l 7.2031,-4.1104958 m 0,-1.006652 -8.00344,4.6138218 v 9.2276437 l 8.00344,4.613821 8.00343,-4.613821 V 8.4058413 Z"
               id="path168318"
               fill="#cecece"
               fill-rule="nonzero"
               style="fill-opacity:1" /><path
               d="m 281.721,4.7986715 7.20309,4.1104958 v 8.2209917 l -7.20309,4.110496 -7.2031,-4.110496 V 8.9091673 l 7.2031,-4.1104958 m 0,-1.006652 -8.00344,4.6138218 v 9.2276437 l 8.00344,4.613821 8.00344,-4.613821 V 8.4058413 Z"
               id="path168320"
               fill="#cecece"
               fill-rule="nonzero"
               style="fill-opacity:1" /><path
               d="m 296.92753,4.7986715 7.20309,4.1104958 v 8.2209917 l -7.20309,4.110496 -7.20309,-4.110496 V 8.9091673 l 7.20309,-4.1104958 m 0,-1.006652 -8.00344,4.6138218 v 9.2276437 l 8.00344,4.613821 8.00344,-4.613821 V 8.4058413 Z"
               id="path168322"
               fill="#cecece"
               fill-rule="nonzero"
               style="fill-opacity:1" /><g
               transform="translate(7.202965,17.130567)"
               fill="#cecece"
               fill-rule="nonzero"
               id="g168364"
               style="fill-opacity:1"><path
                 d="M 8.4036093,1.0905397 15.606703,5.2010354 V 13.422027 L 8.4036093,17.532523 1.2005156,13.422027 V 5.2010354 L 8.4036093,1.0905397 m 0,-0.92276437 L 0.40017187,4.7815971 V 14.009241 L 8.4036093,18.623062 16.407047,14.009241 V 4.7815971 Z"
                 id="path168324"
                 style="fill-opacity:1" /><path
                 d="m 23.61014,1.0905397 7.203094,4.1104957 V 13.422027 L 23.61014,17.532523 16.407047,13.422027 V 5.2010354 L 23.61014,1.0905397 m 0,-0.92276437 -8.003437,4.61382177 v 9.2276439 l 8.003437,4.613821 8.003438,-4.613821 V 4.7815971 Z"
                 id="path168326"
                 style="fill-opacity:1" /><path
                 d="m 38.816672,1.0905397 7.203093,4.1104957 v 8.2209916 l -7.203093,4.110496 -7.203094,-4.110496 V 5.2010354 l 7.203094,-4.1104957 m 0,-0.92276437 -8.003438,4.61382177 v 9.2276439 l 8.003438,4.613821 8.003437,-4.613821 V 4.7815971 Z"
                 id="path168328"
                 style="fill-opacity:1" /><path
                 d="m 54.023203,1.0905397 7.203094,4.1104957 v 8.2209916 l -7.203094,4.110496 -7.203094,-4.110496 V 5.2010354 l 7.203094,-4.1104957 m 0,-0.92276437 -8.003438,4.61382177 v 9.2276439 l 8.003438,4.613821 8.003437,-4.613821 V 4.7815971 Z"
                 id="path168330"
                 style="fill-opacity:1" /><path
                 d="m 69.229734,1.0905397 7.203094,4.1104957 V 13.422027 L 69.229734,17.532523 62.02664,13.422027 V 5.2010354 l 7.203094,-4.1104957 m 0,-0.92276437 -8.003437,4.61382177 v 9.2276439 l 8.003437,4.613821 8.003437,-4.613821 V 4.7815971 Z"
                 id="path168332"
                 style="fill-opacity:1" /><path
                 d="m 84.436265,1.0905397 7.203094,4.1104957 v 8.2209916 l -7.203094,4.110496 -7.203094,-4.110496 V 5.2010354 l 7.203094,-4.1104957 m 0,-0.92276437 -8.003437,4.61382177 v 9.2276439 l 8.003437,4.613821 8.003438,-4.613821 V 4.7815971 Z"
                 id="path168334"
                 style="fill-opacity:1" /><path
                 d="m 99.642796,1.0905397 7.203094,4.1104957 v 8.2209916 l -7.203094,4.110496 -7.203093,-4.110496 V 5.2010354 l 7.203093,-4.1104957 m 0,-0.92276437 -8.003437,4.61382177 v 9.2276439 l 8.003437,4.613821 8.003434,-4.613821 V 4.7815971 Z"
                 id="path168336"
                 style="fill-opacity:1" /><path
                 d="m 114.84933,1.0905397 7.20309,4.1104957 v 8.2209916 l -7.20309,4.110496 -7.2031,-4.110496 V 5.2010354 l 7.2031,-4.1104957 m 0,-0.92276437 -8.00344,4.61382177 v 9.2276439 l 8.00344,4.613821 8.00343,-4.613821 V 4.7815971 Z"
                 id="path168338"
                 style="fill-opacity:1" /><path
                 d="m 130.05586,1.0905397 7.20309,4.1104957 v 8.2209916 l -7.20309,4.110496 -7.2031,-4.110496 V 5.2010354 l 7.2031,-4.1104957 m 0,-0.92276437 -8.00344,4.61382177 v 9.2276439 l 8.00344,4.613821 8.00344,-4.613821 V 4.7815971 Z"
                 id="path168340"
                 style="fill-opacity:1" /><path
                 d="m 145.26239,1.0905397 7.20309,4.1104957 v 8.2209916 l -7.20309,4.110496 -7.20309,-4.110496 V 5.2010354 l 7.20309,-4.1104957 m 0,-0.92276437 -8.00344,4.61382177 v 9.2276439 l 8.00344,4.613821 8.00344,-4.613821 V 4.7815971 Z"
                 id="path168342"
                 style="fill-opacity:1" /><path
                 d="m 160.46892,1.0905397 7.20309,4.1104957 v 8.2209916 l -7.20309,4.110496 -7.20309,-4.110496 V 5.2010354 l 7.20309,-4.1104957 m 0,-0.92276437 -8.00344,4.61382177 v 9.2276439 l 8.00344,4.613821 8.00344,-4.613821 V 4.7815971 Z"
                 id="path168344"
                 style="fill-opacity:1" /><path
                 d="m 175.67545,1.0905397 7.20309,4.1104957 v 8.2209916 l -7.20309,4.110496 -7.20309,-4.110496 V 5.2010354 l 7.20309,-4.1104957 m 0,-0.92276437 -8.00344,4.61382177 v 9.2276439 l 8.00344,4.613821 8.00344,-4.613821 V 4.7815971 Z"
                 id="path168346"
                 style="fill-opacity:1" /><path
                 d="m 190.88198,1.0905397 7.2031,4.1104957 v 8.2209916 l -7.2031,4.110496 -7.20309,-4.110496 V 5.2010354 l 7.20309,-4.1104957 m 0,-0.92276437 -8.00344,4.61382177 v 9.2276439 l 8.00344,4.613821 8.00344,-4.613821 V 4.7815971 Z"
                 id="path168348"
                 style="fill-opacity:1" /><path
                 d="m 206.08851,1.0905397 7.2031,4.1104957 v 8.2209916 l -7.2031,4.110496 -7.20309,-4.110496 V 5.2010354 l 7.20309,-4.1104957 m 0,-0.92276437 -8.00343,4.61382177 v 9.2276439 l 8.00343,4.613821 8.00344,-4.613821 V 4.7815971 Z"
                 id="path168350"
                 style="fill-opacity:1" /><path
                 d="m 221.29505,1.0905397 7.20309,4.1104957 v 8.2209916 l -7.20309,4.110496 -7.2031,-4.110496 V 5.2010354 l 7.2031,-4.1104957 m 0,-0.92276437 -8.00344,4.61382177 v 9.2276439 l 8.00344,4.613821 8.00343,-4.613821 V 4.7815971 Z"
                 id="path168352"
                 style="fill-opacity:1" /><path
                 d="m 236.50158,1.0905397 7.20309,4.1104957 v 8.2209916 l -7.20309,4.110496 -7.2031,-4.110496 V 5.2010354 l 7.2031,-4.1104957 m 0,-0.92276437 -8.00344,4.61382177 v 9.2276439 l 8.00344,4.613821 8.00343,-4.613821 V 4.7815971 Z"
                 id="path168354"
                 style="fill-opacity:1" /><path
                 d="m 251.70811,1.0905397 7.20309,4.1104957 v 8.2209916 l -7.20309,4.110496 -7.2031,-4.110496 V 5.2010354 l 7.2031,-4.1104957 m 0,-0.92276437 -8.00344,4.61382177 v 9.2276439 l 8.00344,4.613821 8.00343,-4.613821 V 4.7815971 Z"
                 id="path168356"
                 style="fill-opacity:1" /><path
                 d="m 266.91464,1.0905397 7.20309,4.1104957 v 8.2209916 l -7.20309,4.110496 -7.2031,-4.110496 V 5.2010354 l 7.2031,-4.1104957 m 0,-0.92276437 -8.00344,4.61382177 v 9.2276439 l 8.00344,4.613821 8.00344,-4.613821 V 4.7815971 Z"
                 id="path168358"
                 style="fill-opacity:1" /><path
                 d="m 282.12117,1.0905397 7.20309,4.1104957 v 8.2209916 l -7.20309,4.110496 -7.20309,-4.110496 V 5.2010354 l 7.20309,-4.1104957 m 0,-0.92276437 -8.00344,4.61382177 v 9.2276439 l 8.00344,4.613821 8.00344,-4.613821 V 4.7815971 Z"
                 id="path168360"
                 style="fill-opacity:1" /><path
                 d="m 297.3277,1.0905397 7.20309,4.1104957 v 8.2209916 l -7.20309,4.110496 -7.20309,-4.110496 V 5.2010354 l 7.20309,-4.1104957 m 0,-0.92276437 -8.00344,4.61382177 v 9.2276439 l 8.00344,4.613821 8.00344,-4.613821 V 4.7815971 Z"
                 id="path168362"
                 style="fill-opacity:1" /></g><g
               transform="translate(0,30.552)"
               fill="#cecece"
               fill-rule="nonzero"
               id="g168406"
               style="fill-opacity:1"><path
                 d="M 8.0034375,1.258315 15.206531,5.3688107 V 13.589802 L 8.0034375,17.700298 0.80034375,13.589802 V 5.3688107 L 8.0034375,1.258315 m 0,-0.92276433 L 0,4.9493724 v 9.2276436 l 8.0034375,4.613822 8.0034375,-4.613822 V 4.9493724 Z"
                 id="path168366"
                 style="fill-opacity:1" /><path
                 d="m 23.209968,1.258315 7.203094,4.1104957 v 8.2209913 l -7.203094,4.110496 -7.203093,-4.110496 V 5.3688107 L 23.209968,1.258315 m 0,-0.92276433 -8.003437,4.61382173 v 9.2276436 l 8.003437,4.613822 8.003438,-4.613822 V 4.9493724 Z"
                 id="path168368"
                 style="fill-opacity:1" /><path
                 d="m 38.4165,1.258315 7.203093,4.1104957 V 13.589802 L 38.4165,17.700298 31.213406,13.589802 V 5.3688107 L 38.4165,1.258315 m 0,-0.92276433 -8.003438,4.61382173 v 9.2276436 l 8.003438,4.613822 8.003437,-4.613822 V 4.9493724 Z"
                 id="path168370"
                 style="fill-opacity:1" /><path
                 d="m 53.623031,1.258315 7.203094,4.1104957 v 8.2209913 l -7.203094,4.110496 -7.203094,-4.110496 V 5.3688107 L 53.623031,1.258315 m 0,-0.92276433 -8.003438,4.61382173 v 9.2276436 l 8.003438,4.613822 8.003437,-4.613822 V 4.9493724 Z"
                 id="path168372"
                 style="fill-opacity:1" /><path
                 d="m 68.829562,1.258315 7.203094,4.1104957 v 8.2209913 l -7.203094,4.110496 -7.203094,-4.110496 V 5.3688107 L 68.829562,1.258315 m 0,-0.92276433 -8.003437,4.61382173 V 14.177016 L 68.829562,18.790838 76.833,14.177016 V 4.9493724 Z"
                 id="path168374"
                 style="fill-opacity:1" /><path
                 d="m 84.036093,1.258315 7.203094,4.1104957 V 13.589802 L 84.036093,17.700298 76.833,13.589802 V 5.3688107 L 84.036093,1.258315 m 0,-0.92276433 -8.003437,4.61382173 v 9.2276436 l 8.003437,4.613822 8.003438,-4.613822 V 4.9493724 Z"
                 id="path168376"
                 style="fill-opacity:1" /><path
                 d="m 99.242624,1.258315 7.203096,4.1104957 v 8.2209913 l -7.203096,4.110496 -7.203093,-4.110496 V 5.3688107 L 99.242624,1.258315 m 0,-0.92276433 -8.003437,4.61382173 v 9.2276436 l 8.003437,4.613822 8.003436,-4.613822 V 4.9493724 Z"
                 id="path168378"
                 style="fill-opacity:1" /><path
                 d="m 114.44916,1.258315 7.20309,4.1104957 v 8.2209913 l -7.20309,4.110496 -7.2031,-4.110496 V 5.3688107 l 7.2031,-4.1104957 m 0,-0.92276433 -8.00344,4.61382173 v 9.2276436 l 8.00344,4.613822 8.00343,-4.613822 V 4.9493724 Z"
                 id="path168380"
                 style="fill-opacity:1" /><path
                 d="m 129.65569,1.258315 7.20309,4.1104957 v 8.2209913 l -7.20309,4.110496 -7.2031,-4.110496 V 5.3688107 l 7.2031,-4.1104957 m 0,-0.92276433 -8.00344,4.61382173 v 9.2276436 l 8.00344,4.613822 8.00343,-4.613822 V 4.9493724 Z"
                 id="path168382"
                 style="fill-opacity:1" /><path
                 d="m 144.86222,1.258315 7.20309,4.1104957 v 8.2209913 l -7.20309,4.110496 -7.2031,-4.110496 V 5.3688107 l 7.2031,-4.1104957 m 0,-0.92276433 -8.00344,4.61382173 v 9.2276436 l 8.00344,4.613822 8.00343,-4.613822 V 4.9493724 Z"
                 id="path168384"
                 style="fill-opacity:1" /><path
                 d="m 160.06875,1.258315 7.20309,4.1104957 v 8.2209913 l -7.20309,4.110496 -7.2031,-4.110496 V 5.3688107 l 7.2031,-4.1104957 m 0,-0.92276433 -8.00344,4.61382173 v 9.2276436 l 8.00344,4.613822 8.00344,-4.613822 V 4.9493724 Z"
                 id="path168386"
                 style="fill-opacity:1" /><path
                 d="m 175.27528,1.258315 7.20309,4.1104957 v 8.2209913 l -7.20309,4.110496 -7.20309,-4.110496 V 5.3688107 l 7.20309,-4.1104957 m 0,-0.92276433 -8.00344,4.61382173 v 9.2276436 l 8.00344,4.613822 8.00344,-4.613822 V 4.9493724 Z"
                 id="path168388"
                 style="fill-opacity:1" /><path
                 d="m 190.48181,1.258315 7.20309,4.1104957 v 8.2209913 l -7.20309,4.110496 -7.20309,-4.110496 V 5.3688107 l 7.20309,-4.1104957 m 0,-0.92276433 -8.00344,4.61382173 v 9.2276436 l 8.00344,4.613822 8.00344,-4.613822 V 4.9493724 Z"
                 id="path168390"
                 style="fill-opacity:1" /><path
                 d="m 205.68834,1.258315 7.2031,4.1104957 v 8.2209913 l -7.2031,4.110496 -7.20309,-4.110496 V 5.3688107 l 7.20309,-4.1104957 m 0,-0.92276433 -8.00344,4.61382173 v 9.2276436 l 8.00344,4.613822 8.00344,-4.613822 V 4.9493724 Z"
                 id="path168392"
                 style="fill-opacity:1" /><path
                 d="m 220.89487,1.258315 7.2031,4.1104957 v 8.2209913 l -7.2031,4.110496 -7.20309,-4.110496 V 5.3688107 l 7.20309,-4.1104957 m 0,-0.92276433 -8.00343,4.61382173 v 9.2276436 l 8.00343,4.613822 8.00344,-4.613822 V 4.9493724 Z"
                 id="path168394"
                 style="fill-opacity:1" /><path
                 d="m 236.1014,1.258315 7.2031,4.1104957 v 8.2209913 l -7.2031,4.110496 -7.20309,-4.110496 V 5.3688107 L 236.1014,1.258315 m 0,-0.92276433 -8.00343,4.61382173 v 9.2276436 l 8.00343,4.613822 8.00344,-4.613822 V 4.9493724 Z"
                 id="path168396"
                 style="fill-opacity:1" /><path
                 d="m 251.30794,1.258315 7.20309,4.1104957 v 8.2209913 l -7.20309,4.110496 -7.2031,-4.110496 V 5.3688107 l 7.2031,-4.1104957 m 0,-0.92276433 -8.00344,4.61382173 v 9.2276436 l 8.00344,4.613822 8.00343,-4.613822 V 4.9493724 Z"
                 id="path168398"
                 style="fill-opacity:1" /><path
                 d="m 266.51447,1.258315 7.20309,4.1104957 v 8.2209913 l -7.20309,4.110496 -7.2031,-4.110496 V 5.3688107 l 7.2031,-4.1104957 m 0,-0.92276433 -8.00344,4.61382173 v 9.2276436 l 8.00344,4.613822 8.00343,-4.613822 V 4.9493724 Z"
                 id="path168400"
                 style="fill-opacity:1" /><path
                 d="m 281.721,1.258315 7.20309,4.1104957 v 8.2209913 l -7.20309,4.110496 -7.2031,-4.110496 V 5.3688107 L 281.721,1.258315 m 0,-0.92276433 -8.00344,4.61382173 v 9.2276436 l 8.00344,4.613822 8.00344,-4.613822 V 4.9493724 Z"
                 id="path168402"
                 style="fill-opacity:1" /><path
                 d="m 296.92753,1.258315 7.20309,4.1104957 v 8.2209913 l -7.20309,4.110496 -7.20309,-4.110496 V 5.3688107 l 7.20309,-4.1104957 m 0,-0.92276433 -8.00344,4.61382173 v 9.2276436 l 8.00344,4.613822 8.00344,-4.613822 V 4.9493724 Z"
                 id="path168404"
                 style="fill-opacity:1" /></g><g
               transform="translate(7.202965,43.974435)"
               fill="#cecece"
               fill-rule="nonzero"
               id="g168448"
               style="fill-opacity:1"><path
                 d="M 8.4036093,1.3422027 15.606703,5.4526984 V 13.67369 L 8.4036093,17.784186 1.2005156,13.67369 V 5.4526984 L 8.4036093,1.3422027 m 0,-1.00665203 L 0.40017187,4.9493724 V 14.177016 L 8.4036093,18.790838 16.407047,14.177016 V 4.9493724 Z"
                 id="path168408"
                 style="fill-opacity:1" /><path
                 d="m 23.61014,1.3422027 7.203094,4.1104957 V 13.67369 L 23.61014,17.784186 16.407047,13.67369 V 5.4526984 L 23.61014,1.3422027 m 0,-1.00665203 -8.003437,4.61382173 v 9.2276436 l 8.003437,4.613822 8.003438,-4.613822 V 4.9493724 Z"
                 id="path168410"
                 style="fill-opacity:1" /><path
                 d="m 38.816672,1.3422027 7.203093,4.1104957 V 13.67369 L 38.816672,17.784186 31.613578,13.67369 V 5.4526984 l 7.203094,-4.1104957 m 0,-1.00665203 -8.003438,4.61382173 v 9.2276436 l 8.003438,4.613822 8.003437,-4.613822 V 4.9493724 Z"
                 id="path168412"
                 style="fill-opacity:1" /><path
                 d="m 54.023203,1.3422027 7.203094,4.1104957 V 13.67369 L 54.023203,17.784186 46.820109,13.67369 V 5.4526984 l 7.203094,-4.1104957 m 0,-1.00665203 -8.003438,4.61382173 v 9.2276436 l 8.003438,4.613822 8.003437,-4.613822 V 4.9493724 Z"
                 id="path168414"
                 style="fill-opacity:1" /><path
                 d="m 69.229734,1.3422027 7.203094,4.1104957 V 13.67369 L 69.229734,17.784186 62.02664,13.67369 V 5.4526984 l 7.203094,-4.1104957 m 0,-1.00665203 -8.003437,4.61382173 v 9.2276436 l 8.003437,4.613822 8.003437,-4.613822 V 4.9493724 Z"
                 id="path168416"
                 style="fill-opacity:1" /><path
                 d="m 84.436265,1.3422027 7.203094,4.1104957 V 13.67369 L 84.436265,17.784186 77.233171,13.67369 V 5.4526984 l 7.203094,-4.1104957 m 0,-1.00665203 -8.003437,4.61382173 v 9.2276436 l 8.003437,4.613822 8.003438,-4.613822 V 4.9493724 Z"
                 id="path168418"
                 style="fill-opacity:1" /><path
                 d="m 99.642796,1.3422027 7.203094,4.1104957 V 13.67369 L 99.642796,17.784186 92.439703,13.67369 V 5.4526984 l 7.203093,-4.1104957 m 0,-1.00665203 -8.003437,4.61382173 v 9.2276436 l 8.003437,4.613822 8.003434,-4.613822 V 4.9493724 Z"
                 id="path168420"
                 style="fill-opacity:1" /><path
                 d="m 114.84933,1.3422027 7.20309,4.1104957 V 13.67369 l -7.20309,4.110496 -7.2031,-4.110496 V 5.4526984 l 7.2031,-4.1104957 m 0,-1.00665203 -8.00344,4.61382173 v 9.2276436 l 8.00344,4.613822 8.00343,-4.613822 V 4.9493724 Z"
                 id="path168422"
                 style="fill-opacity:1" /><path
                 d="m 130.05586,1.3422027 7.20309,4.1104957 V 13.67369 l -7.20309,4.110496 -7.2031,-4.110496 V 5.4526984 l 7.2031,-4.1104957 m 0,-1.00665203 -8.00344,4.61382173 v 9.2276436 l 8.00344,4.613822 8.00344,-4.613822 V 4.9493724 Z"
                 id="path168424"
                 style="fill-opacity:1" /><path
                 d="m 145.26239,1.3422027 7.20309,4.1104957 V 13.67369 l -7.20309,4.110496 -7.20309,-4.110496 V 5.4526984 l 7.20309,-4.1104957 m 0,-1.00665203 -8.00344,4.61382173 v 9.2276436 l 8.00344,4.613822 8.00344,-4.613822 V 4.9493724 Z"
                 id="path168426"
                 style="fill-opacity:1" /><path
                 d="m 160.46892,1.3422027 7.20309,4.1104957 V 13.67369 l -7.20309,4.110496 -7.20309,-4.110496 V 5.4526984 l 7.20309,-4.1104957 m 0,-1.00665203 -8.00344,4.61382173 v 9.2276436 l 8.00344,4.613822 8.00344,-4.613822 V 4.9493724 Z"
                 id="path168428"
                 style="fill-opacity:1" /><path
                 d="m 175.67545,1.3422027 7.20309,4.1104957 V 13.67369 l -7.20309,4.110496 -7.20309,-4.110496 V 5.4526984 l 7.20309,-4.1104957 m 0,-1.00665203 -8.00344,4.61382173 v 9.2276436 l 8.00344,4.613822 8.00344,-4.613822 V 4.9493724 Z"
                 id="path168430"
                 style="fill-opacity:1" /><path
                 d="m 190.88198,1.3422027 7.2031,4.1104957 V 13.67369 l -7.2031,4.110496 -7.20309,-4.110496 V 5.4526984 l 7.20309,-4.1104957 m 0,-1.00665203 -8.00344,4.61382173 v 9.2276436 l 8.00344,4.613822 8.00344,-4.613822 V 4.9493724 Z"
                 id="path168432"
                 style="fill-opacity:1" /><path
                 d="m 206.08851,1.3422027 7.2031,4.1104957 V 13.67369 l -7.2031,4.110496 -7.20309,-4.110496 V 5.4526984 l 7.20309,-4.1104957 m 0,-1.00665203 -8.00343,4.61382173 v 9.2276436 l 8.00343,4.613822 8.00344,-4.613822 V 4.9493724 Z"
                 id="path168434"
                 style="fill-opacity:1" /><path
                 d="m 221.29505,1.3422027 7.20309,4.1104957 V 13.67369 l -7.20309,4.110496 -7.2031,-4.110496 V 5.4526984 l 7.2031,-4.1104957 m 0,-1.00665203 -8.00344,4.61382173 v 9.2276436 l 8.00344,4.613822 8.00343,-4.613822 V 4.9493724 Z"
                 id="path168436"
                 style="fill-opacity:1" /><path
                 d="m 236.50158,1.3422027 7.20309,4.1104957 V 13.67369 l -7.20309,4.110496 -7.2031,-4.110496 V 5.4526984 l 7.2031,-4.1104957 m 0,-1.00665203 -8.00344,4.61382173 v 9.2276436 l 8.00344,4.613822 8.00343,-4.613822 V 4.9493724 Z"
                 id="path168438"
                 style="fill-opacity:1" /><path
                 d="m 251.70811,1.3422027 7.20309,4.1104957 V 13.67369 l -7.20309,4.110496 -7.2031,-4.110496 V 5.4526984 l 7.2031,-4.1104957 m 0,-1.00665203 -8.00344,4.61382173 v 9.2276436 l 8.00344,4.613822 8.00343,-4.613822 V 4.9493724 Z"
                 id="path168440"
                 style="fill-opacity:1" /><path
                 d="m 266.91464,1.3422027 7.20309,4.1104957 V 13.67369 l -7.20309,4.110496 -7.2031,-4.110496 V 5.4526984 l 7.2031,-4.1104957 m 0,-1.00665203 -8.00344,4.61382173 v 9.2276436 l 8.00344,4.613822 8.00344,-4.613822 V 4.9493724 Z"
                 id="path168442"
                 style="fill-opacity:1" /><path
                 d="m 282.12117,1.3422027 7.20309,4.1104957 V 13.67369 l -7.20309,4.110496 -7.20309,-4.110496 V 5.4526984 l 7.20309,-4.1104957 m 0,-1.00665203 -8.00344,4.61382173 v 9.2276436 l 8.00344,4.613822 8.00344,-4.613822 V 4.9493724 Z"
                 id="path168444"
                 style="fill-opacity:1" /><path
                 d="m 297.3277,1.3422027 7.20309,4.1104957 V 13.67369 l -7.20309,4.110496 -7.20309,-4.110496 V 5.4526984 l 7.20309,-4.1104957 m 0,-1.00665203 -8.00344,4.61382173 v 9.2276436 l 8.00344,4.613822 8.00344,-4.613822 V 4.9493724 Z"
                 id="path168446"
                 style="fill-opacity:1" /></g><g
               transform="translate(0,57.395868)"
               fill="#cecece"
               fill-rule="nonzero"
               id="g168490"
               style="fill-opacity:1"><path
                 d="M 8.0034375,1.509978 15.206531,5.6204738 V 13.841465 L 8.0034375,17.951961 0.80034375,13.841465 V 5.6204738 L 8.0034375,1.509978 m 0,-1.00665199 L 0,5.1171477 v 9.2276433 l 8.0034375,4.613822 8.0034375,-4.613822 V 5.1171477 Z"
                 id="path168450"
                 style="fill-opacity:1" /><path
                 d="m 23.209968,1.509978 7.203094,4.1104958 v 8.2209912 l -7.203094,4.110496 -7.203093,-4.110496 V 5.6204738 L 23.209968,1.509978 m 0,-1.00665199 -8.003437,4.61382169 v 9.2276433 l 8.003437,4.613822 8.003438,-4.613822 V 5.1171477 Z"
                 id="path168452"
                 style="fill-opacity:1" /><path
                 d="m 38.4165,1.509978 7.203093,4.1104958 V 13.841465 L 38.4165,17.951961 31.213406,13.841465 V 5.6204738 L 38.4165,1.509978 m 0,-1.00665199 -8.003438,4.61382169 v 9.2276433 l 8.003438,4.613822 8.003437,-4.613822 V 5.1171477 Z"
                 id="path168454"
                 style="fill-opacity:1" /><path
                 d="m 53.623031,1.509978 7.203094,4.1104958 v 8.2209912 l -7.203094,4.110496 -7.203094,-4.110496 V 5.6204738 L 53.623031,1.509978 m 0,-1.00665199 -8.003438,4.61382169 v 9.2276433 l 8.003438,4.613822 8.003437,-4.613822 V 5.1171477 Z"
                 id="path168456"
                 style="fill-opacity:1" /><path
                 d="m 68.829562,1.509978 7.203094,4.1104958 v 8.2209912 l -7.203094,4.110496 -7.203094,-4.110496 V 5.6204738 L 68.829562,1.509978 m 0,-1.00665199 -8.003437,4.61382169 V 14.344791 L 68.829562,18.958613 76.833,14.344791 V 5.1171477 Z"
                 id="path168458"
                 style="fill-opacity:1" /><path
                 d="m 84.036093,1.509978 7.203094,4.1104958 V 13.841465 L 84.036093,17.951961 76.833,13.841465 V 5.6204738 L 84.036093,1.509978 m 0,-1.00665199 -8.003437,4.61382169 v 9.2276433 l 8.003437,4.613822 8.003438,-4.613822 V 5.1171477 Z"
                 id="path168460"
                 style="fill-opacity:1" /><path
                 d="m 99.242624,1.509978 7.203096,4.1104958 v 8.2209912 l -7.203096,4.110496 -7.203093,-4.110496 V 5.6204738 L 99.242624,1.509978 m 0,-1.00665199 -8.003437,4.61382169 v 9.2276433 l 8.003437,4.613822 8.003436,-4.613822 V 5.1171477 Z"
                 id="path168462"
                 style="fill-opacity:1" /><path
                 d="m 114.44916,1.509978 7.20309,4.1104958 v 8.2209912 l -7.20309,4.110496 -7.2031,-4.110496 V 5.6204738 l 7.2031,-4.1104958 m 0,-1.00665199 -8.00344,4.61382169 v 9.2276433 l 8.00344,4.613822 8.00343,-4.613822 V 5.1171477 Z"
                 id="path168464"
                 style="fill-opacity:1" /><path
                 d="m 129.65569,1.509978 7.20309,4.1104958 v 8.2209912 l -7.20309,4.110496 -7.2031,-4.110496 V 5.6204738 l 7.2031,-4.1104958 m 0,-1.00665199 -8.00344,4.61382169 v 9.2276433 l 8.00344,4.613822 8.00343,-4.613822 V 5.1171477 Z"
                 id="path168466"
                 style="fill-opacity:1" /><path
                 d="m 144.86222,1.509978 7.20309,4.1104958 v 8.2209912 l -7.20309,4.110496 -7.2031,-4.110496 V 5.6204738 l 7.2031,-4.1104958 m 0,-1.00665199 -8.00344,4.61382169 v 9.2276433 l 8.00344,4.613822 8.00343,-4.613822 V 5.1171477 Z"
                 id="path168468"
                 style="fill-opacity:1" /><path
                 d="m 160.06875,1.509978 7.20309,4.1104958 v 8.2209912 l -7.20309,4.110496 -7.2031,-4.110496 V 5.6204738 l 7.2031,-4.1104958 m 0,-1.00665199 -8.00344,4.61382169 v 9.2276433 l 8.00344,4.613822 8.00344,-4.613822 V 5.1171477 Z"
                 id="path168470"
                 style="fill-opacity:1" /><path
                 d="m 175.27528,1.509978 7.20309,4.1104958 v 8.2209912 l -7.20309,4.110496 -7.20309,-4.110496 V 5.6204738 l 7.20309,-4.1104958 m 0,-1.00665199 -8.00344,4.61382169 v 9.2276433 l 8.00344,4.613822 8.00344,-4.613822 V 5.1171477 Z"
                 id="path168472"
                 style="fill-opacity:1" /><path
                 d="m 190.48181,1.509978 7.20309,4.1104958 v 8.2209912 l -7.20309,4.110496 -7.20309,-4.110496 V 5.6204738 l 7.20309,-4.1104958 m 0,-1.00665199 -8.00344,4.61382169 v 9.2276433 l 8.00344,4.613822 8.00344,-4.613822 V 5.1171477 Z"
                 id="path168474"
                 style="fill-opacity:1" /><path
                 d="m 205.68834,1.509978 7.2031,4.1104958 v 8.2209912 l -7.2031,4.110496 -7.20309,-4.110496 V 5.6204738 l 7.20309,-4.1104958 m 0,-1.00665199 -8.00344,4.61382169 v 9.2276433 l 8.00344,4.613822 8.00344,-4.613822 V 5.1171477 Z"
                 id="path168476"
                 style="fill-opacity:1" /><path
                 d="m 220.89487,1.509978 7.2031,4.1104958 v 8.2209912 l -7.2031,4.110496 -7.20309,-4.110496 V 5.6204738 l 7.20309,-4.1104958 m 0,-1.00665199 -8.00343,4.61382169 v 9.2276433 l 8.00343,4.613822 8.00344,-4.613822 V 5.1171477 Z"
                 id="path168478"
                 style="fill-opacity:1" /><path
                 d="m 236.1014,1.509978 7.2031,4.1104958 v 8.2209912 l -7.2031,4.110496 -7.20309,-4.110496 V 5.6204738 L 236.1014,1.509978 m 0,-1.00665199 -8.00343,4.61382169 v 9.2276433 l 8.00343,4.613822 8.00344,-4.613822 V 5.1171477 Z"
                 id="path168480"
                 style="fill-opacity:1" /><path
                 d="m 251.30794,1.509978 7.20309,4.1104958 v 8.2209912 l -7.20309,4.110496 -7.2031,-4.110496 V 5.6204738 l 7.2031,-4.1104958 m 0,-1.00665199 -8.00344,4.61382169 v 9.2276433 l 8.00344,4.613822 8.00343,-4.613822 V 5.1171477 Z"
                 id="path168482"
                 style="fill-opacity:1" /><path
                 d="m 266.51447,1.509978 7.20309,4.1104958 v 8.2209912 l -7.20309,4.110496 -7.2031,-4.110496 V 5.6204738 l 7.2031,-4.1104958 m 0,-1.00665199 -8.00344,4.61382169 v 9.2276433 l 8.00344,4.613822 8.00343,-4.613822 V 5.1171477 Z"
                 id="path168484"
                 style="fill-opacity:1" /><path
                 d="m 281.721,1.509978 7.20309,4.1104958 v 8.2209912 l -7.20309,4.110496 -7.2031,-4.110496 V 5.6204738 L 281.721,1.509978 m 0,-1.00665199 -8.00344,4.61382169 v 9.2276433 l 8.00344,4.613822 8.00344,-4.613822 V 5.1171477 Z"
                 id="path168486"
                 style="fill-opacity:1" /><path
                 d="m 296.92753,1.509978 7.20309,4.1104958 v 8.2209912 l -7.20309,4.110496 -7.20309,-4.110496 V 5.6204738 l 7.20309,-4.1104958 m 0,-1.00665199 -8.00344,4.61382169 v 9.2276433 l 8.00344,4.613822 8.00344,-4.613822 V 5.1171477 Z"
                 id="path168488"
                 style="fill-opacity:1" /></g><g
               transform="translate(7.202965,70.818303)"
               fill="#cecece"
               fill-rule="nonzero"
               id="g168532"
               style="fill-opacity:1"><path
                 d="M 8.4036093,1.509978 15.606703,5.6204738 V 13.841465 L 8.4036093,17.951961 1.2005156,13.841465 V 5.6204738 L 8.4036093,1.509978 m 0,-0.92276433 L 0.40017187,5.2010354 V 14.428679 L 8.4036093,19.042501 16.407047,14.428679 V 5.2010354 Z"
                 id="path168492"
                 style="fill-opacity:1" /><path
                 d="m 23.61014,1.509978 7.203094,4.1104958 V 13.841465 L 23.61014,17.951961 16.407047,13.841465 V 5.6204738 L 23.61014,1.509978 m 0,-0.92276433 -8.003437,4.61382173 v 9.2276436 l 8.003437,4.613822 8.003438,-4.613822 V 5.2010354 Z"
                 id="path168494"
                 style="fill-opacity:1" /><path
                 d="m 38.816672,1.509978 7.203093,4.1104958 v 8.2209912 l -7.203093,4.110496 -7.203094,-4.110496 V 5.6204738 L 38.816672,1.509978 m 0,-0.92276433 -8.003438,4.61382173 v 9.2276436 l 8.003438,4.613822 8.003437,-4.613822 V 5.2010354 Z"
                 id="path168496"
                 style="fill-opacity:1" /><path
                 d="m 54.023203,1.509978 7.203094,4.1104958 v 8.2209912 l -7.203094,4.110496 -7.203094,-4.110496 V 5.6204738 L 54.023203,1.509978 m 0,-0.92276433 -8.003438,4.61382173 v 9.2276436 l 8.003438,4.613822 8.003437,-4.613822 V 5.2010354 Z"
                 id="path168498"
                 style="fill-opacity:1" /><path
                 d="m 69.229734,1.509978 7.203094,4.1104958 V 13.841465 L 69.229734,17.951961 62.02664,13.841465 V 5.6204738 L 69.229734,1.509978 m 0,-0.92276433 -8.003437,4.61382173 v 9.2276436 l 8.003437,4.613822 8.003437,-4.613822 V 5.2010354 Z"
                 id="path168500"
                 style="fill-opacity:1" /><path
                 d="m 84.436265,1.509978 7.203094,4.1104958 v 8.2209912 l -7.203094,4.110496 -7.203094,-4.110496 V 5.6204738 L 84.436265,1.509978 m 0,-0.92276433 -8.003437,4.61382173 v 9.2276436 l 8.003437,4.613822 8.003438,-4.613822 V 5.2010354 Z"
                 id="path168502"
                 style="fill-opacity:1" /><path
                 d="m 99.642796,1.509978 7.203094,4.1104958 v 8.2209912 l -7.203094,4.110496 -7.203093,-4.110496 V 5.6204738 L 99.642796,1.509978 m 0,-0.92276433 -8.003437,4.61382173 v 9.2276436 l 8.003437,4.613822 8.003434,-4.613822 V 5.2010354 Z"
                 id="path168504"
                 style="fill-opacity:1" /><path
                 d="m 114.84933,1.509978 7.20309,4.1104958 v 8.2209912 l -7.20309,4.110496 -7.2031,-4.110496 V 5.6204738 l 7.2031,-4.1104958 m 0,-0.92276433 -8.00344,4.61382173 v 9.2276436 l 8.00344,4.613822 8.00343,-4.613822 V 5.2010354 Z"
                 id="path168506"
                 style="fill-opacity:1" /><path
                 d="m 130.05586,1.509978 7.20309,4.1104958 v 8.2209912 l -7.20309,4.110496 -7.2031,-4.110496 V 5.6204738 l 7.2031,-4.1104958 m 0,-0.92276433 -8.00344,4.61382173 v 9.2276436 l 8.00344,4.613822 8.00344,-4.613822 V 5.2010354 Z"
                 id="path168508"
                 style="fill-opacity:1" /><path
                 d="m 145.26239,1.509978 7.20309,4.1104958 v 8.2209912 l -7.20309,4.110496 -7.20309,-4.110496 V 5.6204738 l 7.20309,-4.1104958 m 0,-0.92276433 -8.00344,4.61382173 v 9.2276436 l 8.00344,4.613822 8.00344,-4.613822 V 5.2010354 Z"
                 id="path168510"
                 style="fill-opacity:1" /><path
                 d="m 160.46892,1.509978 7.20309,4.1104958 v 8.2209912 l -7.20309,4.110496 -7.20309,-4.110496 V 5.6204738 l 7.20309,-4.1104958 m 0,-0.92276433 -8.00344,4.61382173 v 9.2276436 l 8.00344,4.613822 8.00344,-4.613822 V 5.2010354 Z"
                 id="path168512"
                 style="fill-opacity:1" /><path
                 d="m 175.67545,1.509978 7.20309,4.1104958 v 8.2209912 l -7.20309,4.110496 -7.20309,-4.110496 V 5.6204738 l 7.20309,-4.1104958 m 0,-0.92276433 -8.00344,4.61382173 v 9.2276436 l 8.00344,4.613822 8.00344,-4.613822 V 5.2010354 Z"
                 id="path168514"
                 style="fill-opacity:1" /><path
                 d="m 190.88198,1.509978 7.2031,4.1104958 v 8.2209912 l -7.2031,4.110496 -7.20309,-4.110496 V 5.6204738 l 7.20309,-4.1104958 m 0,-0.92276433 -8.00344,4.61382173 v 9.2276436 l 8.00344,4.613822 8.00344,-4.613822 V 5.2010354 Z"
                 id="path168516"
                 style="fill-opacity:1" /><path
                 d="m 206.08851,1.509978 7.2031,4.1104958 v 8.2209912 l -7.2031,4.110496 -7.20309,-4.110496 V 5.6204738 l 7.20309,-4.1104958 m 0,-0.92276433 -8.00343,4.61382173 v 9.2276436 l 8.00343,4.613822 8.00344,-4.613822 V 5.2010354 Z"
                 id="path168518"
                 style="fill-opacity:1" /><path
                 d="m 221.29505,1.509978 7.20309,4.1104958 v 8.2209912 l -7.20309,4.110496 -7.2031,-4.110496 V 5.6204738 l 7.2031,-4.1104958 m 0,-0.92276433 -8.00344,4.61382173 v 9.2276436 l 8.00344,4.613822 8.00343,-4.613822 V 5.2010354 Z"
                 id="path168520"
                 style="fill-opacity:1" /><path
                 d="m 236.50158,1.509978 7.20309,4.1104958 v 8.2209912 l -7.20309,4.110496 -7.2031,-4.110496 V 5.6204738 l 7.2031,-4.1104958 m 0,-0.92276433 -8.00344,4.61382173 v 9.2276436 l 8.00344,4.613822 8.00343,-4.613822 V 5.2010354 Z"
                 id="path168522"
                 style="fill-opacity:1" /><path
                 d="m 251.70811,1.509978 7.20309,4.1104958 v 8.2209912 l -7.20309,4.110496 -7.2031,-4.110496 V 5.6204738 l 7.2031,-4.1104958 m 0,-0.92276433 -8.00344,4.61382173 v 9.2276436 l 8.00344,4.613822 8.00343,-4.613822 V 5.2010354 Z"
                 id="path168524"
                 style="fill-opacity:1" /><path
                 d="m 266.91464,1.509978 7.20309,4.1104958 v 8.2209912 l -7.20309,4.110496 -7.2031,-4.110496 V 5.6204738 l 7.2031,-4.1104958 m 0,-0.92276433 -8.00344,4.61382173 v 9.2276436 l 8.00344,4.613822 8.00344,-4.613822 V 5.2010354 Z"
                 id="path168526"
                 style="fill-opacity:1" /><path
                 d="m 282.12117,1.509978 7.20309,4.1104958 v 8.2209912 l -7.20309,4.110496 -7.20309,-4.110496 V 5.6204738 l 7.20309,-4.1104958 m 0,-0.92276433 -8.00344,4.61382173 v 9.2276436 l 8.00344,4.613822 8.00344,-4.613822 V 5.2010354 Z"
                 id="path168528"
                 style="fill-opacity:1" /><path
                 d="m 297.3277,1.509978 7.20309,4.1104958 v 8.2209912 l -7.20309,4.110496 -7.20309,-4.110496 V 5.6204738 L 297.3277,1.509978 m 0,-0.92276433 -8.00344,4.61382173 v 9.2276436 l 8.00344,4.613822 8.00344,-4.613822 V 5.2010354 Z"
                 id="path168530"
                 style="fill-opacity:1" /></g><g
               transform="translate(0,84.240738)"
               fill="#cecece"
               fill-rule="nonzero"
               id="g168574"
               style="fill-opacity:1"><path
                 d="M 8.0034375,1.6777533 15.206531,5.7882491 V 14.009241 L 8.0034375,18.119736 0.80034375,14.009241 V 5.8721367 L 8.0034375,1.6777533 m 0,-0.92276429 L 0,5.3688107 v 9.2276433 l 8.0034375,4.613822 8.0034375,-4.613822 V 5.3688107 Z"
                 id="path168534"
                 style="fill-opacity:1" /><path
                 d="m 23.209968,1.6777533 7.203094,4.1104958 v 8.2209919 l -7.203094,4.110495 -7.203093,-4.110495 V 5.8721367 l 7.203093,-4.1943834 m 0,-0.92276429 -8.003437,4.61382169 v 9.2276433 l 8.003437,4.613822 8.003438,-4.613822 V 5.3688107 Z"
                 id="path168536"
                 style="fill-opacity:1" /><path
                 d="m 38.4165,1.6777533 7.203093,4.1104958 V 14.009241 L 38.4165,18.119736 31.213406,14.009241 V 5.8721367 L 38.4165,1.6777533 m 0,-0.92276429 -8.003438,4.61382169 v 9.2276433 l 8.003438,4.613822 8.003437,-4.613822 V 5.3688107 Z"
                 id="path168538"
                 style="fill-opacity:1" /><path
                 d="m 53.623031,1.6777533 7.203094,4.1104958 v 8.2209919 l -7.203094,4.110495 -7.203094,-4.110495 V 5.8721367 l 7.203094,-4.1943834 m 0,-0.92276429 -8.003438,4.61382169 v 9.2276433 l 8.003438,4.613822 8.003437,-4.613822 V 5.3688107 Z"
                 id="path168540"
                 style="fill-opacity:1" /><path
                 d="m 68.829562,1.6777533 7.203094,4.1104958 v 8.2209919 l -7.203094,4.110495 -7.203094,-4.110495 V 5.8721367 l 7.203094,-4.1943834 m 0,-0.92276429 -8.003437,4.61382169 V 14.596454 L 68.829562,19.210276 76.833,14.596454 V 5.3688107 Z"
                 id="path168542"
                 style="fill-opacity:1" /><path
                 d="m 84.036093,1.6777533 7.203094,4.1104958 V 14.009241 L 84.036093,18.119736 76.833,14.009241 V 5.8721367 l 7.203093,-4.1943834 m 0,-0.92276429 -8.003437,4.61382169 v 9.2276433 l 8.003437,4.613822 8.003438,-4.613822 V 5.3688107 Z"
                 id="path168544"
                 style="fill-opacity:1" /><path
                 d="m 99.242624,1.6777533 7.203096,4.1104958 v 8.2209919 l -7.203096,4.110495 -7.203093,-4.110495 V 5.8721367 l 7.203093,-4.1943834 m 0,-0.92276429 -8.003437,4.61382169 v 9.2276433 l 8.003437,4.613822 8.003436,-4.613822 V 5.3688107 Z"
                 id="path168546"
                 style="fill-opacity:1" /><path
                 d="m 114.44916,1.6777533 7.20309,4.1104958 v 8.2209919 l -7.20309,4.110495 -7.2031,-4.110495 V 5.8721367 l 7.2031,-4.1943834 m 0,-0.92276429 -8.00344,4.61382169 v 9.2276433 l 8.00344,4.613822 8.00343,-4.613822 V 5.3688107 Z"
                 id="path168548"
                 style="fill-opacity:1" /><path
                 d="m 129.65569,1.6777533 7.20309,4.1104958 v 8.2209919 l -7.20309,4.110495 -7.2031,-4.110495 V 5.8721367 l 7.2031,-4.1943834 m 0,-0.92276429 -8.00344,4.61382169 v 9.2276433 l 8.00344,4.613822 8.00343,-4.613822 V 5.3688107 Z"
                 id="path168550"
                 style="fill-opacity:1" /><path
                 d="m 144.86222,1.6777533 7.20309,4.1104958 v 8.2209919 l -7.20309,4.110495 -7.2031,-4.110495 V 5.8721367 l 7.2031,-4.1943834 m 0,-0.92276429 -8.00344,4.61382169 v 9.2276433 l 8.00344,4.613822 8.00343,-4.613822 V 5.3688107 Z"
                 id="path168552"
                 style="fill-opacity:1" /><path
                 d="m 160.06875,1.6777533 7.20309,4.1104958 v 8.2209919 l -7.20309,4.110495 -7.2031,-4.110495 V 5.8721367 l 7.2031,-4.1943834 m 0,-0.92276429 -8.00344,4.61382169 v 9.2276433 l 8.00344,4.613822 8.00344,-4.613822 V 5.3688107 Z"
                 id="path168554"
                 style="fill-opacity:1" /><path
                 d="m 175.27528,1.6777533 7.20309,4.1104958 v 8.2209919 l -7.20309,4.110495 -7.20309,-4.110495 V 5.8721367 l 7.20309,-4.1943834 m 0,-0.92276429 -8.00344,4.61382169 v 9.2276433 l 8.00344,4.613822 8.00344,-4.613822 V 5.3688107 Z"
                 id="path168556"
                 style="fill-opacity:1" /><path
                 d="m 190.48181,1.6777533 7.20309,4.1104958 v 8.2209919 l -7.20309,4.110495 -7.20309,-4.110495 V 5.8721367 l 7.20309,-4.1943834 m 0,-0.92276429 -8.00344,4.61382169 v 9.2276433 l 8.00344,4.613822 8.00344,-4.613822 V 5.3688107 Z"
                 id="path168558"
                 style="fill-opacity:1" /><path
                 d="m 205.68834,1.6777533 7.2031,4.1104958 v 8.2209919 l -7.2031,4.110495 -7.20309,-4.110495 V 5.8721367 l 7.20309,-4.1943834 m 0,-0.92276429 -8.00344,4.61382169 v 9.2276433 l 8.00344,4.613822 8.00344,-4.613822 V 5.3688107 Z"
                 id="path168560"
                 style="fill-opacity:1" /><path
                 d="m 220.89487,1.6777533 7.2031,4.1104958 v 8.2209919 l -7.2031,4.110495 -7.20309,-4.110495 V 5.8721367 l 7.20309,-4.1943834 m 0,-0.92276429 -8.00343,4.61382169 v 9.2276433 l 8.00343,4.613822 8.00344,-4.613822 V 5.3688107 Z"
                 id="path168562"
                 style="fill-opacity:1" /><path
                 d="m 236.1014,1.6777533 7.2031,4.1104958 v 8.2209919 l -7.2031,4.110495 -7.20309,-4.110495 V 5.8721367 l 7.20309,-4.1943834 m 0,-0.92276429 -8.00343,4.61382169 v 9.2276433 l 8.00343,4.613822 8.00344,-4.613822 V 5.3688107 Z"
                 id="path168564"
                 style="fill-opacity:1" /><path
                 d="m 251.30794,1.6777533 7.20309,4.1104958 v 8.2209919 l -7.20309,4.110495 -7.2031,-4.110495 V 5.8721367 l 7.2031,-4.1943834 m 0,-0.92276429 -8.00344,4.61382169 v 9.2276433 l 8.00344,4.613822 8.00343,-4.613822 V 5.3688107 Z"
                 id="path168566"
                 style="fill-opacity:1" /><path
                 d="m 266.51447,1.6777533 7.20309,4.1104958 v 8.2209919 l -7.20309,4.110495 -7.2031,-4.110495 V 5.8721367 l 7.2031,-4.1943834 m 0,-0.92276429 -8.00344,4.61382169 v 9.2276433 l 8.00344,4.613822 8.00343,-4.613822 V 5.3688107 Z"
                 id="path168568"
                 style="fill-opacity:1" /><path
                 d="m 281.721,1.6777533 7.20309,4.1104958 v 8.2209919 l -7.20309,4.110495 -7.2031,-4.110495 V 5.8721367 l 7.2031,-4.1943834 m 0,-0.92276429 -8.00344,4.61382169 v 9.2276433 l 8.00344,4.613822 8.00344,-4.613822 V 5.3688107 Z"
                 id="path168570"
                 style="fill-opacity:1" /><path
                 d="m 296.92753,1.6777533 7.20309,4.1104958 v 8.2209919 l -7.20309,4.110495 -7.20309,-4.110495 V 5.8721367 l 7.20309,-4.1943834 m 0,-0.92276429 -8.00344,4.61382169 v 9.2276433 l 8.00344,4.613822 8.00344,-4.613822 V 5.3688107 Z"
                 id="path168572"
                 style="fill-opacity:1" /></g><g
               transform="translate(7.202965,97.662171)"
               fill="#cecece"
               fill-rule="nonzero"
               id="g168616"
               style="fill-opacity:1"><path
                 d="M 8.4036093,1.761641 15.606703,5.8721367 V 14.093128 L 8.4036093,18.203624 1.2005156,14.093128 V 5.8721367 L 8.4036093,1.761641 m 0,-1.00665199 L 0.40017187,5.3688107 V 14.596454 L 8.4036093,19.210276 16.407047,14.596454 V 5.3688107 Z"
                 id="path168576"
                 style="fill-opacity:1" /><path
                 d="m 23.61014,1.761641 7.203094,4.1104957 V 14.093128 L 23.61014,18.203624 16.407047,14.093128 V 5.8721367 L 23.61014,1.761641 m 0,-1.00665199 -8.003437,4.61382169 v 9.2276433 l 8.003437,4.613822 8.003438,-4.613822 V 5.3688107 Z"
                 id="path168578"
                 style="fill-opacity:1" /><path
                 d="m 38.816672,1.761641 7.203093,4.1104957 v 8.2209913 l -7.203093,4.110496 -7.203094,-4.110496 V 5.8721367 L 38.816672,1.761641 m 0,-1.00665199 -8.003438,4.61382169 v 9.2276433 l 8.003438,4.613822 8.003437,-4.613822 V 5.3688107 Z"
                 id="path168580"
                 style="fill-opacity:1" /><path
                 d="m 54.023203,1.761641 7.203094,4.1104957 v 8.2209913 l -7.203094,4.110496 -7.203094,-4.110496 V 5.8721367 L 54.023203,1.761641 m 0,-1.00665199 -8.003438,4.61382169 v 9.2276433 l 8.003438,4.613822 8.003437,-4.613822 V 5.3688107 Z"
                 id="path168582"
                 style="fill-opacity:1" /><path
                 d="m 69.229734,1.761641 7.203094,4.1104957 V 14.093128 L 69.229734,18.203624 62.02664,14.093128 V 5.8721367 L 69.229734,1.761641 m 0,-1.00665199 -8.003437,4.61382169 v 9.2276433 l 8.003437,4.613822 8.003437,-4.613822 V 5.3688107 Z"
                 id="path168584"
                 style="fill-opacity:1" /><path
                 d="m 84.436265,1.761641 7.203094,4.1104957 v 8.2209913 l -7.203094,4.110496 -7.203094,-4.110496 V 5.8721367 L 84.436265,1.761641 m 0,-1.00665199 -8.003437,4.61382169 v 9.2276433 l 8.003437,4.613822 8.003438,-4.613822 V 5.3688107 Z"
                 id="path168586"
                 style="fill-opacity:1" /><path
                 d="m 99.642796,1.761641 7.203094,4.1104957 v 8.2209913 l -7.203094,4.110496 -7.203093,-4.110496 V 5.8721367 L 99.642796,1.761641 m 0,-1.00665199 -8.003437,4.61382169 v 9.2276433 l 8.003437,4.613822 8.003434,-4.613822 V 5.3688107 Z"
                 id="path168588"
                 style="fill-opacity:1" /><path
                 d="m 114.84933,1.761641 7.20309,4.1104957 v 8.2209913 l -7.20309,4.110496 -7.2031,-4.110496 V 5.8721367 l 7.2031,-4.1104957 m 0,-1.00665199 -8.00344,4.61382169 v 9.2276433 l 8.00344,4.613822 8.00343,-4.613822 V 5.3688107 Z"
                 id="path168590"
                 style="fill-opacity:1" /><path
                 d="m 130.05586,1.761641 7.20309,4.1104957 v 8.2209913 l -7.20309,4.110496 -7.2031,-4.110496 V 5.8721367 l 7.2031,-4.1104957 m 0,-1.00665199 -8.00344,4.61382169 v 9.2276433 l 8.00344,4.613822 8.00344,-4.613822 V 5.3688107 Z"
                 id="path168592"
                 style="fill-opacity:1" /><path
                 d="m 145.26239,1.761641 7.20309,4.1104957 v 8.2209913 l -7.20309,4.110496 -7.20309,-4.110496 V 5.8721367 l 7.20309,-4.1104957 m 0,-1.00665199 -8.00344,4.61382169 v 9.2276433 l 8.00344,4.613822 8.00344,-4.613822 V 5.3688107 Z"
                 id="path168594"
                 style="fill-opacity:1" /><path
                 d="m 160.46892,1.761641 7.20309,4.1104957 v 8.2209913 l -7.20309,4.110496 -7.20309,-4.110496 V 5.8721367 l 7.20309,-4.1104957 m 0,-1.00665199 -8.00344,4.61382169 v 9.2276433 l 8.00344,4.613822 8.00344,-4.613822 V 5.3688107 Z"
                 id="path168596"
                 style="fill-opacity:1" /><path
                 d="m 175.67545,1.761641 7.20309,4.1104957 v 8.2209913 l -7.20309,4.110496 -7.20309,-4.110496 V 5.8721367 l 7.20309,-4.1104957 m 0,-1.00665199 -8.00344,4.61382169 v 9.2276433 l 8.00344,4.613822 8.00344,-4.613822 V 5.3688107 Z"
                 id="path168598"
                 style="fill-opacity:1" /><path
                 d="m 190.88198,1.761641 7.2031,4.1104957 v 8.2209913 l -7.2031,4.110496 -7.20309,-4.110496 V 5.8721367 l 7.20309,-4.1104957 m 0,-1.00665199 -8.00344,4.61382169 v 9.2276433 l 8.00344,4.613822 8.00344,-4.613822 V 5.3688107 Z"
                 id="path168600"
                 style="fill-opacity:1" /><path
                 d="m 206.08851,1.761641 7.2031,4.1104957 v 8.2209913 l -7.2031,4.110496 -7.20309,-4.110496 V 5.8721367 l 7.20309,-4.1104957 m 0,-1.00665199 -8.00343,4.61382169 v 9.2276433 l 8.00343,4.613822 8.00344,-4.613822 V 5.3688107 Z"
                 id="path168602"
                 style="fill-opacity:1" /><path
                 d="m 221.29505,1.761641 7.20309,4.1104957 v 8.2209913 l -7.20309,4.110496 -7.2031,-4.110496 V 5.8721367 l 7.2031,-4.1104957 m 0,-1.00665199 -8.00344,4.61382169 v 9.2276433 l 8.00344,4.613822 8.00343,-4.613822 V 5.3688107 Z"
                 id="path168604"
                 style="fill-opacity:1" /><path
                 d="m 236.50158,1.761641 7.20309,4.1104957 v 8.2209913 l -7.20309,4.110496 -7.2031,-4.110496 V 5.8721367 l 7.2031,-4.1104957 m 0,-1.00665199 -8.00344,4.61382169 v 9.2276433 l 8.00344,4.613822 8.00343,-4.613822 V 5.3688107 Z"
                 id="path168606"
                 style="fill-opacity:1" /><path
                 d="m 251.70811,1.761641 7.20309,4.1104957 v 8.2209913 l -7.20309,4.110496 -7.2031,-4.110496 V 5.8721367 l 7.2031,-4.1104957 m 0,-1.00665199 -8.00344,4.61382169 v 9.2276433 l 8.00344,4.613822 8.00343,-4.613822 V 5.3688107 Z"
                 id="path168608"
                 style="fill-opacity:1" /><path
                 d="m 266.91464,1.761641 7.20309,4.1104957 v 8.2209913 l -7.20309,4.110496 -7.2031,-4.110496 V 5.8721367 l 7.2031,-4.1104957 m 0,-1.00665199 -8.00344,4.61382169 v 9.2276433 l 8.00344,4.613822 8.00344,-4.613822 V 5.3688107 Z"
                 id="path168610"
                 style="fill-opacity:1" /><path
                 d="m 282.12117,1.761641 7.20309,4.1104957 v 8.2209913 l -7.20309,4.110496 -7.20309,-4.110496 V 5.8721367 l 7.20309,-4.1104957 m 0,-1.00665199 -8.00344,4.61382169 v 9.2276433 l 8.00344,4.613822 8.00344,-4.613822 V 5.3688107 Z"
                 id="path168612"
                 style="fill-opacity:1" /><path
                 d="m 297.3277,1.761641 7.20309,4.1104957 v 8.2209913 l -7.20309,4.110496 -7.20309,-4.110496 V 5.8721367 L 297.3277,1.761641 m 0,-1.00665199 -8.00344,4.61382169 v 9.2276433 l 8.00344,4.613822 8.00344,-4.613822 V 5.3688107 Z"
                 id="path168614"
                 style="fill-opacity:1" /></g><polyline
               id="polyline168618"
               stroke="#ffffff"
               stroke-width="7.89"
               points="0 117.257143 0 2.67039138e-15 309.626662 2.67039138e-15 309.626662 117.257143"
               style="fill-opacity:1" /></g><polyline
             id="polyline168621"
             stroke="#ffffff"
             stroke-width="7.89"
             points="32.4787331 117.257143 32.4787331 -7.12104368e-15 342.105395 -7.12104368e-15 342.105395 117.257143"
             style="fill-opacity:1" /></g></g><polygon
         id="polygon175637" /><rect
         id="rect175639"
         width="0"
         height="0"
         x="0"
         y="0" /><rect
         id="rect175641"
         width="0"
         height="0"
         x="0"
         y="0" /><polygon
         id="polygon175643" /><path
         id="path175645"
         d="" /><path
         id="path175647"
         d="" /><polygon
         id="polygon175649" /><path
         id="path175651"
         d="" /><path
         id="path175653"
         d="" /><polygon
         id="polygon175655" /><polygon
         id="polygon175657" /><path
         id="path175659"
         d="" /><polygon
         id="polygon175661" /><path
         id="path175663"
         d="" /><polygon
         id="polygon175665" /><path
         id="path175667"
         d="" /><path
         id="path175669"
         d="" /><polygon
         id="polygon175671" /><path
         id="path175673"
         d="" /><path
         id="path175675"
         d="" /><polygon
         id="polygon175677" /><polygon
         id="polygon175679" /><polygon
         id="polygon175681" /><polygon
         id="polygon175683" /><path
         id="path175685"
         d="" /><g
         id="g175738"><polygon
           id="polygon175687" /><g
           id="g168725"
           transform="translate(18)"><rect
             id="rect175689"
             width="0"
             height="0"
             x="0"
             y="0" /><rect
             id="rect175691"
             width="0"
             height="0"
             x="0"
             y="0" /><polygon
             id="polygon175693" /><path
             id="path175695"
             d="" /><path
             id="path175697"
             d="" /><polygon
             id="polygon175699" /><path
             id="path175701"
             d="" /><path
             id="path175703"
             d="" /><polygon
             id="polygon175705" /><polygon
             id="polygon175707" /><path
             id="path175709"
             d="" /><polygon
             id="polygon175711" /><path
             id="path175713"
             d="" /><polygon
             id="polygon175715" /><path
             id="path175717"
             d="" /><path
             id="path175719"
             d="" /><polygon
             id="polygon175721" /><path
             id="path175723"
             d="" /><path
             id="path175725"
             d="" /><polygon
             id="polygon175727" /><polygon
             id="polygon175729" /><polygon
             id="polygon175731" /><polygon
             id="polygon175733" /><path
             id="path175735"
             d="" /></g></g><g
         id="Pitch-markings"
         transform="translate(36.043495,114.99581)"><g
           id="Penalty-area"
           transform="translate(541.95693)"><path
             d="M 962.19506,2.500066 1001.9975,218.60266 H 2.9403254 L 38.147757,2.529358 Z"
             id="Outer-box"
             stroke="#ffffff"
             stroke-width="5" /><path
             d="m 745.52409,2.5050351 9.71199,85.9645959 h -516.262 l 8.06101,-85.9645959 z"
             id="6-yard-box"
             stroke="#ffffff"
             stroke-width="5" /><path
             d="m 294.12311,219.67957 c 130.66209,78.63606 267.50484,78.63606 410.52823,0"
             id="outer-curve"
             stroke="#ffffff"
             stroke-width="5" /><ellipse
             id="penalty-spot"
             fill="#ffffff"
             cx="495.41464"
             cy="148.69716"
             rx="11.227656"
             ry="5.7477632" /></g><g
           id="Centre-circle"
           transform="translate(61.95693,848.99026)"><rect
             id="rect168734"
             fill="#ffffff"
             x="0"
             y="190.57268"
             width="1954"
             height="6.7990251" /><ellipse
             id="Oval"
             fill="#ffffff"
             cx="977.95532"
             cy="194.18242"
             rx="26.252987"
             ry="22.675402" /><ellipse
             id="ellipse168737"
             stroke="#ffffff"
             stroke-width="8"
             cx="977.80054"
             cy="201.47112"
             rx="235.08446"
             ry="197.47112" /></g><g
           id="Corners"
           transform="translate(362.95693,3.012067)"
           stroke="#ffffff"
           stroke-width="4"><path
             d="M 0,15.035157 C 13.358394,13.484044 21.26254,8.795686 23.712439,0.97008215"
             id="Path-2" /><path
             d="m 1356,14.682451 c -7.9021,-0.304838 -12.9378,-1.159575 -15.1073,-2.564213 C 1333.7698,7.5064392 1333.3229,0 1333.3229,0"
             id="Path-3" /></g><g
           id="Pitch-outline"
           fill="#ffffff"><polygon
             id="polygon168743"
             points="370.64472,0 5.2207498,1252.9973 0,1253.0035 365.41151,0.00070270515 " /><polygon
             id="polygon168745"
             points="1715.8027,0.0050350611 2077.9405,1252.9943 2072.7324,1253.005 1710.5967,0.0050350611 " /><polygon
             id="polygon168747"
             points="1712.0899,0.0050350611 1712.0899,5.0050351 369.08987,5.0050351 370.52429,0.0050350611 " /></g></g><rect
         id="rect175284"
         width="280.3786"
         height="81.16861"
         x="1403.1077"
         y="17.912048"
         style="opacity:1;fill:#c0c0c0;fill-opacity:1;stroke:#bfbfbf;stroke-width:2;stroke-dasharray:none;stroke-opacity:1" /><rect
         style="opacity:1;fill:#c0c0c0;fill-opacity:1;stroke:#bfbfbf;stroke-width:2;stroke-dasharray:none;stroke-opacity:1"
         id="rect175286"
         width="279.7431"
         height="80.533089"
         x="505.49667"
         y="18.229546" /><text
         xml:space="preserve"
         transform="matrix(0.21487193,0,0,0.1823425,1275.6465,-367.9904)"
         id="text174327"
         style="font-style:normal;font-variant:normal;font-weight:bold;font-stretch:normal;font-size:161.665px;font-family:Montserrat;-inkscape-font-specification:'Montserrat, Bold';font-variant-ligatures:normal;font-variant-caps:normal;font-variant-numeric:normal;font-variant-east-asian:normal;white-space:pre;shape-inside:url(#rect174329);fill:#000000;fill-opacity:1;fill-rule:nonzero;stroke:#000000;stroke-width:5;stroke-dasharray:none;stroke-opacity:1"><tspan
           x="683.25391"
           y="2395.5149"
           id="tspan176311">FPL CAPTAIN</tspan></text><text
         xml:space="preserve"
         transform="matrix(0.21487193,0,0,0.1823425,379.32283,-367.99065)"
         id="text174327-3"
         style="font-style:normal;font-variant:normal;font-weight:bold;font-stretch:normal;font-size:161.665px;font-family:Montserrat;-inkscape-font-specification:'Montserrat, Bold';font-variant-ligatures:normal;font-variant-caps:normal;font-variant-numeric:normal;font-variant-east-asian:normal;white-space:pre;shape-inside:url(#rect174329-5);display:inline;fill:#000000;fill-opacity:1;fill-rule:nonzero;stroke:#000000;stroke-width:5;stroke-dasharray:none;stroke-opacity:1"><tspan
           x="683.25391"
           y="2395.5149"
           id="tspan176313">FPL CAPTAIN</tspan></text></g></g></svg>
